<svg xmlns="http://www.w3.org/2000/svg" version="1.1" xmlns:xlink="http://www.w3.org/1999/xlink" xmlns:svgjs="http://svgjs.dev/svgjs" viewBox="0 0 13.120341443507904 13.11968539941619"><g transform="matrix(1,0,0,1,3.669844903339624,3.945743931206698)"><g><path d=" M -0.9864570678399619 -0.11060988087922974 Q -1.040487974492993 -0.033690045165342186 -1.1044882948910144 0.00262054542405199 Q -1.1684886152890357 0.03893113601344611 -1.2389756169222892 0.034023733365026176 Q -1.3094626185555427 0.029116330716606215 -1.3815604759103666 -0.017861312528276746 Q -1.4173220061481344 -0.04175928221302613 -1.45741851625431 -0.06992432929811673 Q -1.4975150263604853 -0.09808937638320736 -1.5329452589642942 -0.12419873519647595 Q -1.5999577427941607 -0.17493656143047875 -1.6272571280524986 -0.2387173858569226 Q -1.6545565133108362 -0.3024982102833665 -1.641534051884324 -0.3758393003924929 Q -1.628511590457812 -0.4491803905016194 -1.5756302775633562 -0.5244636339662754 Q -1.5330953084960766 -0.5850175471878465 -1.4853590568882722 -0.619920989459869 Q -1.437622805280468 -0.6548244317318914 -1.390822492066758 -0.6683883796490221 Q -1.344022178853048 -0.6819523275661528 -1.303067580781127 -0.6776255624041171 Q -1.2621129827092061 -0.6732987972420813 -1.2345344137175962 -0.6551487963502075 Q -1.2271697485960538 -0.6499756244366195 -1.2252996050617764 -0.6413296679735553 Q -1.2234294615274988 -0.6326837115104913 -1.2291774303203744 -0.6245007502643329 L -1.3004522433520322 -0.5230320308119706 Q -1.306200212144908 -0.5148490695658123 -1.3126347794794528 -0.5126476283975756 Q -1.3190693468139978 -0.5104461872293388 -1.3279149033280744 -0.511771377765176 Q -1.3466678117261723 -0.5163896487200413 -1.3707156416605224 -0.514339801055316 Q -1.3947634715948722 -0.5122899533905906 -1.4203460400763548 -0.4984866135813174 Q -1.4459286085578371 -0.48468327377204434 -1.4700700774879147 -0.4503148365381797 Q -1.5062822808830312 -0.3987621806873827 -1.5002585948647051 -0.34992607512241547 Q -1.4942349088463789 -0.3010899695574482 -1.4345870901380546 -0.2555253152370335 Q -1.3659380140589563 -0.20363789524445558 -1.291385268330285 -0.1549358613617099 Q -1.2258337799723882 -0.11255659315112748 -1.1764568287621664 -0.12369960392844376 Q -1.1270798775519448 -0.1348426147057601 -1.0908676741568282 -0.18639527055655708 Q -1.067301002106038 -0.2199454116658059 -1.060485397336122 -0.2548745904654899 Q -1.0536697925662055 -0.2898037692651739 -1.0681158317228323 -0.32317009889078907 Q -1.0825618708794593 -0.3565364285164042 -1.1218400848610188 -0.3841266787222073 L -1.1422974879764145 -0.3984966007043963 L -1.2049503478187589 -0.30930232312127137 Q -1.2106983166116345 -0.3011193618751131 -1.2208591157012663 -0.29970226559745905 Q -1.2310199147908978 -0.298285169319805 -1.2392028760370561 -0.3040331381126806 L -1.291573828012469 -0.3408201383870847 Q -1.300575085383243 -0.34714290405924786 -1.302279580100541 -0.35689455508657153 Q -1.3039840748178386 -0.3666462061138953 -1.298236106024963 -0.37482916736005356 L -1.15741087059951 -0.5753117178909308 Q -1.151088104927347 -0.5843129752617049 -1.1413364539000233 -0.5860174699790026 Q -1.1315848028726994 -0.5877219646963006 -1.1225835455019253 -0.5813991990241373 L -1.0333892679188004 -0.5187463391817929 Q -0.9630158012018394 -0.4693138075630625 -0.9346546205735576 -0.4035650932534277 Q -0.9062934399452759 -0.3378163789437929 -0.9196471990057473 -0.26226389970614716 Q -0.9330009580662186 -0.18671142046850153 -0.9864570678399619 -0.11060988087922974 M -0.6998722212699461 -0.5032210263872947 Q -0.7074944665368508 -0.49528998754669196 -0.7173920109689009 -0.49509348254524777 Q -0.7272895554009511 -0.4948969775438035 -0.7352205942415538 -0.5025192228107082 L -1.2038728893680797 -0.9529246249459843 Q -1.2118039282086823 -0.960546870212889 -1.2120004332101266 -0.970444414644939 Q -1.2121969382115707 -0.9803419590769893 -1.2045746929446661 -0.988272997917592 L -1.0209478751510535 -1.1793389336230218 Q -0.9343314516635004 -1.2694643749935075 -0.8429826887042464 -1.2815330744186328 Q -0.7516339257449924 -1.2936017738437582 -0.6737655444008928 -1.2187651839505125 Q -0.6211322866405291 -1.1681811926337813 -0.6100557121998136 -1.1089924310429244 Q -0.5989791377590981 -1.0498036694520678 -0.6225580049020899 -0.9906341078155882 L -0.3446037964671585 -0.91906275870639 Q -0.33819898111767394 -0.917068180971879 -0.3345939634628545 -0.913603524032377 Q -0.3288259352151434 -0.9080600729291736 -0.3282970005912807 -0.8992299977220375 Q -0.327768065967418 -0.8903999225149014 -0.3340044484585218 -0.8839108907362264 L -0.41091983251546893 -0.803879498799235 Q -0.4233925974976766 -0.7909014352418852 -0.4364785135329373 -0.7909952516482642 Q -0.44956442956819803 -0.7910890680546433 -0.45810418336751085 -0.7937485050339912 L -0.7077516212820925 -0.8644673620855944 L -0.791596319218044 -0.7772259348389642 L -0.6250445035653863 -0.6171587842339661 Q -0.6171134647247836 -0.6095365389670614 -0.6169169597233393 -0.5996389945350112 Q -0.6167204547218951 -0.589741450102961 -0.6243426999887998 -0.5818104112623583 L -0.6998722212699461 -0.5032210263872947 M -0.8831637676504575 -0.8652282211023181 L -0.794468549999203 -0.9575166730656954 Q -0.7563573236646797 -0.9971718672687092 -0.7560197301594156 -1.0336017455367628 Q -0.7556821366541515 -1.0700316238048164 -0.7881272955475264 -1.1012135362603355 Q -0.8205724544409012 -1.1323954487158545 -0.8573347623313733 -1.1316655729962046 Q -0.8940970702218454 -1.1309356972765547 -0.9329012279442692 -1.090559499542577 L -1.0215964455955235 -0.9982710475791996 L -0.8831637676504575 -0.8652282211023181 M 0.011969984381250465 -1.1501478895959412 Q -0.06031923785349935 -1.0948734077015359 -0.13097114031861642 -1.07861583475661 Q -0.20162304278373344 -1.062358261811684 -0.26776378319359356 -1.087944438900798 Q -0.3339045236034537 -1.1135306159899119 -0.3921695785593827 -1.1847919896153378 Q -0.4190826768417364 -1.2183432211999514 -0.4448976821220905 -1.2521046711447523 Q -0.47071268740244465 -1.285866121089553 -0.4966444234586984 -1.3214265635095903 Q -0.5489283322915801 -1.3947436343536639 -0.5564946488047977 -1.4663763842270412 Q -0.5640609653180155 -1.538009134100418 -0.5300639945500562 -1.603028023498827 Q -0.4960670237820968 -1.668046912897236 -0.42536657566239644 -1.7221065710137422 Q -0.35546051460022077 -1.775558817241299 -0.2838040067173918 -1.791325709073175 Q -0.2121474988345629 -1.807092600905051 -0.14460495947822855 -1.7813194486473618 Q -0.07706242012189429 -1.7555462963896726 -0.02080657600138891 -1.6852662849903466 Q 0.007508321227438941 -1.6515280782371577 0.03332332650779313 -1.6177666282923568 Q 0.059138331788147314 -1.5840051783475562 0.08366826889792678 -1.548631711096094 Q 0.13716700150870742 -1.473725866136971 0.14452309966173799 -1.4031912092655934 Q 0.15187919781476855 -1.3326565523942158 0.11767200868662203 -1.2687357559978063 Q 0.08346481955847562 -1.204814959601397 0.011969984381250465 -1.1501478895959412 M -0.06638614929323627 -1.2526238200166304 Q -0.020311699956802265 -1.287853709575702 -0.012085307357332764 -1.3388323959534363 Q -0.003858914757863152 -1.3898110823311707 -0.04964826798087549 -1.4529880965959983 Q -0.07478561697960448 -1.489155950904985 -0.09817097470416061 -1.5197398526196868 Q -0.12155633242871672 -1.5503237543343886 -0.14926381776859504 -1.5832675740300528 Q -0.18164362305149429 -1.623968289132389 -0.2159871824222731 -1.6392496480296137 Q -0.250330741793052 -1.6545310069268384 -0.2831800442687487 -1.648925355594461 Q -0.31602934674444544 -1.6433197042620837 -0.3470104419879097 -1.6196306405930527 Q -0.3779915372313739 -1.595941576924022 -0.3924082646783982 -1.5654062208639035 Q -0.40682499212542256 -1.534870864803785 -0.40068217329677136 -1.4980263838488526 Q -0.3945393544681202 -1.4611819028939204 -0.3645427103577952 -1.4186589521247357 Q -0.33921838619049094 -1.383892896762223 -0.31583302846593486 -1.3533089950475212 Q -0.29244767074137873 -1.3227250933328194 -0.2649271605700756 -1.288379474690681 Q -0.21516587205943968 -1.228239519870601 -0.16421042887331733 -1.2225130192196052 Q -0.11325498568719494 -1.2167865185686093 -0.06638614929323627 -1.2526238200166304 M 0.6267891531772789 -1.5487589541564124 Q 0.5442457001609218 -1.5037858692707118 0.47165795179420933 -1.5001090789515827 Q 0.39907020342749694 -1.496432288632454 0.33851237423415925 -1.5323349253516496 Q 0.2779545450408216 -1.5682375620708453 0.23281803230548787 -1.6427204139099971 Q 0.21232399046155084 -1.6782449723013264 0.1898374480187006 -1.719516698809505 Q 0.16735090557585033 -1.7607884253176835 0.1476562332666082 -1.7990261015367162 Q 0.11002313232932293 -1.8764583281212857 0.11312913657945228 -1.947047652651261 Q 0.11623514082958164 -2.0176369771812364 0.15888119596508335 -2.077313722915062 Q 0.20152725110058506 -2.1369904686488885 0.2823144604357432 -2.181006679388085 Q 0.34114862375591276 -2.213061963295978 0.397578755234174 -2.224447931034653 Q 0.4540088867124352 -2.235833898773328 0.5044437466804853 -2.2268714828042278 Q 0.5548786066485354 -2.217909066835128 0.594770081291567 -2.1906754433008944 Q 0.6346615559345988 -2.1634418197666605 0.661774964498161 -2.117858236361389 Q 0.6660808981574302 -2.1099551397959933 0.6632437286330459 -2.101576567776257 Q 0.6604065591086618 -2.0931979957565208 0.6525034625432657 -2.0888920620972518 L 0.5523975727149176 -2.0343502357465084 Q 0.5418601106277231 -2.028608990867483 0.5328426353040134 -2.030528662398315 Q 0.5238251599803039 -2.0324483339291475 0.5136145535923757 -2.0428282914045326 Q 0.47221493866150677 -2.0874609239011237 0.43095505862897576 -2.090034306830489 Q 0.3896951785964447 -2.0926076897598547 0.34403284288526836 -2.0677289619507437 Q 0.2895892887680966 -2.0380658634091113 0.27424376299708547 -1.99098598619165 Q 0.2588982372260744 -1.9439061089741887 0.29406040049119425 -1.8730991723470682 Q 0.3306578749760705 -1.7996578701981492 0.3744378287975526 -1.7255747031263446 Q 0.41486872310626977 -1.657638388938737 0.4627479698584259 -1.6450059809954292 Q 0.5106272166105821 -1.6323735730521216 0.5650707707277538 -1.6620366715937538 Q 0.6107331064389302 -1.6869153994028645 0.631141597632041 -1.7236576569168052 Q 0.651550088825152 -1.7603999144307456 0.6360944443449218 -1.8180291002110491 Q 0.6324303756085381 -1.8331146761130508 0.6359458245898482 -1.8412934057491133 Q 0.6394612735711582 -1.8494721353851757 0.6499987356583528 -1.8552133802642012 L 0.7501046254867009 -1.9097552066149444 Q 0.7580077220520969 -1.9140611402742136 0.7665861364555067 -1.9119022502067553 Q 0.7751645508589164 -1.9097433601392968 0.7794704845181857 -1.901840263573901 Q 0.8030714057193497 -1.8543429318756206 0.8043255193760013 -1.8060580771182932 Q 0.805579633032653 -1.757773222360966 0.7857647457527395 -1.7105358405316953 Q 0.7659498584728259 -1.6632984587024244 0.7257865874851372 -1.622056348383365 Q 0.6856233164974486 -1.5808142380643053 0.6267891531772789 -1.5487589541564124 M 1.0454864467105611 -1.76647270931651 Q 1.0351633615640172 -1.7626735103144564 1.026176453469455 -1.7668250742245863 Q 1.0171895453748931 -1.7709766381347165 1.0133903463728393 -1.7812997232812604 L 0.7888922235242107 -2.391300209213396 Q 0.785093024522157 -2.4016232943599403 0.7892445884322872 -2.410610202454502 Q 0.7933961523424171 -2.4195971105490646 0.803719237488961 -2.423396309551118 L 1.2288426530693575 -2.579854232090239 Q 1.2391657382159011 -2.583653431092293 1.2481526463104633 -2.579501867182163 Q 1.2571395544050255 -2.5753503032720326 1.260938753407079 -2.565027218125489 L 1.2885692916038334 -2.4899502352415337 Q 1.2920231088784275 -2.4805656123810396 1.2878715449682976 -2.471578704286477 Q 1.2837199810581676 -2.4625917961919153 1.2733968959116235 -2.4587925971898614 L 0.9693351152316051 -2.3468889174930068 L 1.0235600464427355 -2.1995503385832444 L 1.3069756568296662 -2.303855620275992 Q 1.31729874197621 -2.3076548192780457 1.3262856500707723 -2.3035032553679153 Q 1.3352725581653342 -2.2993516914577854 1.339071757167388 -2.2890286063112417 L 1.3646300049993856 -2.2195823971435833 Q 1.36808382227398 -2.2101977742830887 1.36393225836385 -2.201210866188527 Q 1.3597806944537199 -2.1922239580939644 1.349457609307176 -2.188424759091911 L 1.066041998920245 -2.0841194773991636 L 1.1219938387686725 -1.932088587059154 L 1.4335633177370868 -2.0467553205756843 Q 1.4438864028836305 -2.050554519577738 1.4528733109781924 -2.046402955667608 Q 1.4618602190727548 -2.042251391757478 1.4656594180748084 -2.031928306610934 L 1.4929445745441032 -1.9577897860130284 Q 1.4967437735461568 -1.9474667008664845 1.492592209636027 -1.9384797927719224 Q 1.4884406457258967 -1.9294928846773605 1.4781175605793528 -1.9256936856753066 L 1.0454864467105611 -1.76647270931651 M 1.6721380992805979 -1.9805880364312918 Q 1.6613807220722672 -1.9782904647571784 1.6530730273288936 -1.983673977369862 Q 1.6447653325855203 -1.9890574899825457 1.6424677609114067 -1.9998148671908764 L 1.5067021619865226 -2.63547806586496 Q 1.5044045903124093 -2.646235443073291 1.5097881029250928 -2.654543137816664 Q 1.5151716155377766 -2.6628508325600375 1.5259289927461073 -2.6651484042341513 L 1.7850839891286183 -2.7204989945650655 Q 1.9073269119505576 -2.7466077635890818 1.9897488692470418 -2.705414670048823 Q 2.0721708265435264 -2.6642215765085644 2.094728802980276 -2.5586036911904086 Q 2.109976324090302 -2.4872138242623962 2.085982943157573 -2.4319841431894718 Q 2.0619895622248445 -2.376754462116547 2.0093037863055003 -2.340960481955399 L 2.19941134129668 -2.1259253277706107 Q 2.2035983923575593 -2.1206842779317343 2.2046427431185203 -2.1157945610188564 Q 2.206313704336057 -2.1079710139582524 2.2018037000298527 -2.100361161058359 Q 2.1972936957236486 -2.092751308158465 2.188492205280469 -2.090871476788736 L 2.079940489814587 -2.06768688989541 Q 2.062337508928228 -2.0639272271559514 2.051551752039223 -2.07133785792069 Q 2.040765995150218 -2.0787484886854277 2.0351832604023787 -2.0857365551372635 L 1.8680429028761687 -2.284203431179616 L 1.7497117535845315 -2.2589301427643687 L 1.7979607587409134 -2.033025221389425 Q 1.8002583304150268 -2.022267844181094 1.7948748178023433 -2.013960149437721 Q 1.7894913051896595 -2.0056524546943475 1.7787339279813288 -2.0033548830202337 L 1.6721380992805979 -1.9805880364312918 M 1.723185244256131 -2.3831289523514587 L 1.8483619972257967 -2.4098643318320514 Q 1.90214888326745 -2.4213521902026183 1.9228426291008978 -2.4513358338000977 Q 1.9435363749343457 -2.481319477397577 1.9341372180857 -2.525326929613475 Q 1.9247380612370542 -2.569334381829373 1.8938809093330953 -2.589330285819341 Q 1.8630237574291366 -2.609326189809309 1.808258928004908 -2.59762946128655 L 1.6830821750352423 -2.5708940818059576 L 1.723185244256131 -2.3831289523514587 M 2.5291040351673293 -2.1196559566329323 Q 2.5181281991015623 -2.1189272436184936 2.510679849686886 -2.125448140105702 Q 2.5032315002722094 -2.1319690365929107 2.5025027872577703 -2.1429448726586773 L 2.4879285269689895 -2.3624615939740132 L 2.2264202320147035 -2.7690306676504335 Q 2.2252236888229686 -2.7719578308488755 2.224060268950072 -2.774386092407964 Q 2.222896849077175 -2.776814353967053 2.2226981091641465 -2.7798077638031713 Q 2.222168136062736 -2.78779019003282 2.22822325422943 -2.794706514489305 Q 2.2342783723961235 -2.8016228389457902 2.242260798625772 -2.8021528120472006 L 2.348027946168616 -2.809174955640886 Q 2.361997192070501 -2.810102408568354 2.3704433447638835 -2.8036477587188213 Q 2.378889497457266 -2.797193108869289 2.382280387119442 -2.7914050291100816 L 2.557153327237271 -2.5274098495810873 L 2.6955906166331487 -2.8122064733404324 Q 2.698186546643209 -2.8183920329256975 2.705705246409124 -2.8259066289780503 Q 2.7132239461750385 -2.833421225030403 2.7271931920769235 -2.834348677957871 L 2.832960339619767 -2.8413708215515565 Q 2.8409427658494155 -2.8419007946529664 2.847859090305901 -2.8358456764862727 Q 2.8547754147623863 -2.829790558319579 2.8553053878637966 -2.821808132089931 Q 2.8555041277768254 -2.8188147222538125 2.85467194109231 -2.816253967419371 Q 2.8538397544077947 -2.8136932125849294 2.8530406910421173 -2.810633556111135 L 2.6475770515619614 -2.3730610560022174 L 2.6621513118507423 -2.1535443346868814 Q 2.662880024865181 -2.142568498621115 2.6563591283779724 -2.1351201492064384 Q 2.649838231890764 -2.127671799791762 2.6388623958249973 -2.126943086777323 L 2.5291040351673293 -2.1196559566329323 M 3.2526473034242955 -2.1087140486217857 Q 3.15693551391854 -2.1161473083109104 3.0947971894203556 -2.1490574682703865 Q 3.032658864922171 -2.181967628229862 3.0032422777588446 -2.2293877125788217 Q 2.9738256905955183 -2.2768077969277813 2.9757806141906626 -2.3278095446795706 Q 2.9764000524980894 -2.3357855271383836 2.9828853329669838 -2.341801434155599 Q 2.9893706134358777 -2.347817341172814 2.9983435937020424 -2.3471204730769584 L 3.105022359088666 -2.338835485715122 Q 3.1179833305842366 -2.3378288984655526 3.124536451399342 -2.3318034020061202 Q 3.131089572214447 -2.3257779055466874 3.13645212075113 -2.317337344357304 Q 3.142114798999309 -2.2998463731133283 3.1563293883984045 -2.2826942464750624 Q 3.1705439777975006 -2.2655421198367964 3.1966499058174964 -2.252983038572038 Q 3.222755833837492 -2.24042395730728 3.262635746131557 -2.2373267657701446 Q 3.327440603609412 -2.2322938295222996 3.3614690579053357 -2.2507143153527616 Q 3.3954975122012594 -2.269134801183223 3.398284984584681 -2.3050267222478813 Q 3.400298159083819 -2.330948665239023 3.38408957407002 -2.3482556514541457 Q 3.3678809890562205 -2.3655626376692687 3.331500158530104 -2.3814272262309037 Q 3.295119328003987 -2.3972918147925393 3.2344669107746125 -2.417047428785373 Q 3.160930951838095 -2.438806627835128 3.1105630265570587 -2.468295135815084 Q 3.0601951012760225 -2.4977836437950405 3.036910565812554 -2.540213944386133 Q 3.013626030349086 -2.582644244977226 3.0182718176547887 -2.642464113418323 Q 3.0229176049604916 -2.70228398185942 3.0594190177650145 -2.746089196883134 Q 3.095920430569538 -2.7898944119068476 3.1577921884039872 -2.8116690664959627 Q 3.219663946238436 -2.8334437210850774 3.3024147642486206 -2.827017048645522 Q 3.3692136173411793 -2.82182925282082 3.4191652682280766 -2.7998956581844294 Q 3.469116919114974 -2.7779620635480384 3.501267879604182 -2.7463777994340624 Q 3.5334188400933897 -2.7147935353200863 3.5488096176075823 -2.680498871485772 Q 3.564200395121775 -2.646204207651458 3.562797069487847 -2.6152198458351292 Q 3.5621776311804196 -2.607243863376316 3.5556923507115252 -2.601227956359101 Q 3.5492070702426313 -2.5952120493418858 3.5402340899764666 -2.595908917437741 L 3.4285703355530854 -2.60458105374172 Q 3.418600357479569 -2.6053553516260037 3.4109340941744697 -2.6099627811628374 Q 3.4032678308693702 -2.6145702106996707 3.399057139716896 -2.624927337715329 Q 3.395088327371924 -2.651313859437041 3.367186772929405 -2.673039495439035 Q 3.3392852184868858 -2.694765131441029 3.2924263215413596 -2.698404331497163 Q 3.24357342898113 -2.7021983911301537 3.213765255279898 -2.6864591795680335 Q 3.183957081578666 -2.670719968005913 3.181092179406816 -2.633831049133903 Q 3.179233864484535 -2.6099031017574643 3.192412741182065 -2.592329906003951 Q 3.205591617879595 -2.574756710250438 3.2390201698778713 -2.5596229099577634 Q 3.2724487218761475 -2.544489109665089 3.328116150068764 -2.525120644614397 Q 3.4144582209239953 -2.5003608627003704 3.467357355617625 -2.471177279153019 Q 3.5202564903112545 -2.4419936956056674 3.5431199566594755 -2.4005991077161406 Q 3.5659834230076966 -2.3592045198266134 3.5613376357019937 -2.2993846513855165 Q 3.556149839877292 -2.232585798292958 3.515045792257044 -2.1876335206061444 Q 3.473941744636796 -2.142681242919331 3.406663928650341 -2.1223294499739236 Q 3.3393861126638864 -2.1019776570285167 3.2526473034242955 -2.1087140486217857 M 3.7074204581203607 -2.0653487468645184 Q 3.6966736814093673 -2.0676954019998224 3.691328149497565 -2.076027585902011 Q 3.685982617585762 -2.0843597698042005 3.688329272721066 -2.095106546515194 L 3.8269952579890156 -2.7301433521648106 Q 3.829341913124319 -2.740890128875804 3.8376740970265084 -2.7462356607876064 Q 3.8460062809286977 -2.751581192699409 3.856753057639691 -2.7492345375641056 L 3.9651978044506255 -2.7255546539260402 Q 3.9759445811616194 -2.7232079987907367 3.9812901130734217 -2.714875814888547 Q 3.9866356449852245 -2.706543630986358 3.9842889898499205 -2.6957968542753648 L 3.868876223649981 -2.167250836034684 L 4.171739930959798 -2.101117827676123 Q 4.182486707670791 -2.0987711725408196 4.187832239582594 -2.0904389886386303 Q 4.193177771494397 -2.082106804736441 4.190831116359093 -2.0713600280254476 L 4.172911204416773 -1.9892937331414973 Q 4.17056454928147 -1.9785469564305036 4.16223236537928 -1.973201424518701 Q 4.153900181477091 -1.9678558926068985 4.143153404766098 -1.9702025477422023 L 3.7074204581203607 -2.0653487468645184 M 4.30864828918943 -1.9149287574791578 Q 4.298194688057595 -1.9183525307450888 4.293721161233838 -1.9271835871800305 Q 4.289247634410082 -1.9360146436149723 4.292671407676012 -1.9464682447468071 L 4.494985282481025 -2.5641810389006774 Q 4.498409055746956 -2.574634640032512 4.507240112181898 -2.579108166856269 Q 4.51607116861684 -2.583581693680026 4.526524769748674 -2.580157920414095 L 4.633911763193885 -2.5449864314095314 Q 4.64436536432572 -2.5415626581436004 4.648838891149477 -2.5327316017086585 Q 4.653312417973234 -2.523900545273717 4.649888644707303 -2.513446944141882 L 4.447574769902291 -1.8957341499880118 Q 4.44415099663636 -1.885280548856177 4.435319940201419 -1.88080702203242 Q 4.426488883766477 -1.8763334952086632 4.416035282634642 -1.8797572684745942 L 4.30864828918943 -1.9149287574791578 M 4.633432562698507 -1.8039828457492328 Q 4.623386847707976 -1.8084643198737824 4.6198459671568965 -1.8177088947651978 Q 4.616305086605817 -1.8269534696566132 4.620786560730367 -1.8369991846471447 L 4.885600940817391 -2.430609615905832 Q 4.890082414941942 -2.4406553308963637 4.899326989833357 -2.4441962114474434 Q 4.908571564724772 -2.4477370919985226 4.918617279715304 -2.443255617873973 L 5.167933660843953 -2.3320335782374224 Q 5.241906653046958 -2.2990336324111933 5.286059670212675 -2.251961761031739 Q 5.330212687378393 -2.204889889652285 5.340232415459579 -2.145122799634625 Q 5.350252143540766 -2.0853557096169646 5.319696638146109 -2.0168621983178854 Q 5.288733726012857 -1.9474554402014852 5.237973324072128 -1.9158978484870395 Q 5.187212922131399 -1.8843402567725938 5.123096974774506 -1.8866630341033161 Q 5.058981027417613 -1.8889858114340383 4.985008035214607 -1.9219857572602677 L 4.862632961693586 -1.9765782602320543 L 4.77055903877102 -1.7701844795174955 Q 4.76607756464647 -1.7601387645269637 4.756832989755055 -1.7565978839758842 Q 4.74758841486364 -1.753057003424805 4.737542699873108 -1.7575384775493545 L 4.633432562698507 -1.8039828457492328 M 4.9104116568274545 -2.091043085795652 L 5.030960236713835 -2.037265396301056 Q 5.077535824397208 -2.0164876526326894 5.113748527155744 -2.027707731015746 Q 5.14996122991428 -2.0389278093988032 5.170331566844051 -2.084590150264856 Q 5.18825746334225 -2.124773010226982 5.1763770581812345 -2.1607327929461553 Q 5.164496653020219 -2.1966925756653284 5.112441584432919 -2.2199147597652673 L 4.991893004546539 -2.273692449259863 L 4.9104116568274545 -2.091043085795652 M 5.190028122035505 -1.5360641988834824 Q 5.180471049192254 -1.5415105149474644 5.177855113059992 -1.5510581260702492 Q 5.175239176927729 -1.560605737193034 5.180685492991711 -1.5701628100362852 L 5.23613889291589 -1.6674711880766628 Q 5.241585208979871 -1.6770282609199143 5.251132820102656 -1.6796441970521767 Q 5.260680431225441 -1.6822601331844391 5.270237504068692 -1.6768138171204572 L 5.36754588210907 -1.621360417196278 Q 5.3771029549523215 -1.6159141011322962 5.379718891084584 -1.6063664900095114 Q 5.382334827216846 -1.5968188788867266 5.376888511152865 -1.5872618060434753 L 5.321435111228686 -1.4899534280030977 Q 5.315988795164704 -1.4803963551598462 5.306441184041919 -1.4777804190275838 Q 5.296893572919134 -1.4751644828953214 5.287336500075883 -1.4806107989593034 L 5.190028122035505 -1.5360641988834824 M 5.6628297826370595 -1.2227864342020816 Q 5.586644581769722 -1.2778483554254045 5.5520096866816795 -1.3417461178450725 Q 5.517374791593638 -1.4056438802647404 5.52363627034669 -1.4757655166106294 Q 5.529897749099742 -1.5458871529565181 5.577617391046123 -1.6187420482794082 Q 5.60082328008111 -1.652557528670729 5.628354240692772 -1.6906501291043978 Q 5.655885201304434 -1.7287427295380666 5.681883582298798 -1.763007641411175 Q 5.735501306008108 -1.8303659349185977 5.800522647132245 -1.8580196001082003 Q 5.865543988256381 -1.8856732652978028 5.937780208856282 -1.8729481549469036 Q 6.010016429456182 -1.8602230445960044 6.084580668602937 -1.8063326536114754 Q 6.138882886242423 -1.767086390611873 6.173501326528669 -1.721091134420091 Q 6.208119766814914 -1.675095878228309 6.221794517405841 -1.6257298859231206 Q 6.235469267996768 -1.576363893617932 6.2281119467890935 -1.5286263839986913 Q 6.220754625581418 -1.4808888743794508 6.191330035973956 -1.4367618585452429 Q 6.186058149899383 -1.4294675308026255 6.1772754335911095 -1.4284121189169614 Q 6.168492717282837 -1.4273567070312971 6.161198389540219 -1.4326285931058709 L 6.068803571467066 -1.4994058167171347 Q 6.059077801143576 -1.5064349981498995 6.056919025837923 -1.5153982391474239 Q 6.054760250532269 -1.524361480144948 6.0597190387626645 -1.5380512726666078 Q 6.082121967902728 -1.5946561202147223 6.066641970419284 -1.6329884783200175 Q 6.051161972935841 -1.6713208364253123 6.009016968200718 -1.7017806226339591 Q 5.958767154862686 -1.7380980600365765 5.909673829832717 -1.7316292550849823 Q 5.860580504802748 -1.7251604501333881 5.811873617789508 -1.6628897575286041 Q 5.761409435418077 -1.5981876223429476 5.7134650777308025 -1.5267289729997455 Q 5.669621075879308 -1.4609436896785792 5.678882372790278 -1.4122997961303971 Q 5.688143669701248 -1.3636559025822153 5.738393483039279 -1.3273384651795979 Q 5.780538487774402 -1.2968786789709512 5.82249027350116 -1.2943198365888993 Q 5.864442059227918 -1.2917609942068475 5.909763168197019 -1.3305681724321565 Q 5.921791568429137 -1.3403823248589308 5.930686642607857 -1.340739613754751 Q 5.939581716786577 -1.341096902650571 5.949307487110067 -1.3340677212178065 L 6.041702305183221 -1.2672904976065424 Q 6.048996632925839 -1.262018611531969 6.050750167801346 -1.253348253094143 Q 6.052503702676854 -1.2446778946563173 6.047231816602281 -1.2373835669136999 Q 6.014565303553655 -1.1955996115570802 5.971546824493184 -1.17363576719131 Q 5.928528345432713 -1.1516719228255397 5.8773646272003734 -1.1491671400721155 Q 5.826200908968035 -1.1466623573186911 5.77166645462229 -1.165101264260585 Q 5.7171320002765444 -1.183540171202479 5.6628297826370595 -1.2227864342020816 M 6.21402172111218 -0.7552878213814633 Q 6.149312482226032 -0.8192699626614743 6.123473520378938 -0.8870073087171357 Q 6.097634558531844 -0.9547446547727974 6.113861786099461 -1.0237803490582087 Q 6.130089013667078 -1.0928160433436198 6.192640983789085 -1.160345674127859 Q 6.222163212757813 -1.191625667681534 6.2520449820369395 -1.2218470155129773 Q 6.281926751316065 -1.2520683633444207 6.313574261812842 -1.2826532465280531 Q 6.378986574250857 -1.3445420935161123 6.448893147294277 -1.3619078945435603 Q 6.518799720337698 -1.3792736955710083 6.587883355124613 -1.3545613220583697 Q 6.656966989911528 -1.3298489485457312 6.720254047723256 -1.2672730081729733 Q 6.782830014997774 -1.2054001682538418 6.808321421659846 -1.1366001814341566 Q 6.833812828321919 -1.0678001946144715 6.817593590837886 -0.9973503093382232 Q 6.801374353353853 -0.9269004240619749 6.739517493601889 -0.8614960748057833 Q 6.710003254716744 -0.8288018902612713 6.680121485437619 -0.798580542429828 Q 6.6502397161584925 -0.7683591945983848 6.6185842155781325 -0.7391885024055893 Q 6.5517657022328635 -0.6758774743431091 6.482917774911675 -0.6588712136260584 Q 6.414069847590486 -0.6418649529090076 6.3460448585258025 -0.6669368667320432 Q 6.27801986946112 -0.692008780555079 6.21402172111218 -0.7552878213814633 M 6.304721679629998 -0.8470185006816089 Q 6.345964930788203 -0.8062386743712722 6.397590892037335 -0.805116121431249 Q 6.449216853286467 -0.8039935684912258 6.505480869743754 -0.8580524294863864 Q 6.53783947077774 -0.8879342122163923 6.564908838242361 -0.9153111978989938 Q 6.5919782057069805 -0.9426881835815955 6.620789344138499 -0.9746712775888969 Q 6.6566394771898665 -1.0123510859774658 6.667042162489753 -1.048472881870687 Q 6.67744484778964 -1.084594677763908 6.667365733973142 -1.1163580444726513 Q 6.657286620156645 -1.1481214111813944 6.629554089205438 -1.1755423288728277 Q 6.6018215582542314 -1.202963246564261 6.569590785106708 -1.2130343568462942 Q 6.537360011959184 -1.2231054671283272 6.501713612588328 -1.2119437373388469 Q 6.466067213217471 -1.2007820075493663 6.428083808554472 -1.1652115005216768 Q 6.397139398511323 -1.1353377078752547 6.370070031046703 -1.1079607221926533 Q 6.343000663582083 -1.0805837365100517 6.312775334159728 -1.0485926524191662 Q 6.260066770388493 -0.9910182891558731 6.261417054161537 -0.9397598583007226 Q 6.262767337934583 -0.888501427445572 6.304721679629998 -0.8470185006816089 M 6.5540830314442 -0.4127637622176761 Q 6.548241453179811 -0.42088016310606396 6.549541750103391 -0.43105656855742686 Q 6.550842047026971 -0.4412329740087897 6.559770088004198 -0.4476587100996171 L 7.087336145749409 -0.8273612972848732 Q 7.096264186726635 -0.8337870333757005 7.106326851046798 -0.8317888374944816 Q 7.116389515366961 -0.8297906416132628 7.122231093631349 -0.8216742407248748 L 7.176557771490163 -0.7461917124628678 Q 7.185320138886746 -0.734017111130286 7.183208201874327 -0.7232565478524843 Q 7.1810962648619086 -0.7124959845746826 7.17960217798587 -0.7077244330024107 L 7.011941227934271 -0.3603531534933022 L 7.395740573768246 -0.40741760013205996 Q 7.400155449776479 -0.4081309512601378 7.41102975418548 -0.4067169132053578 Q 7.421904058594482 -0.4053028751505777 7.430666425991065 -0.393128273817996 L 7.484993103849879 -0.3176457455559889 Q 7.491418839940706 -0.30871770457876224 7.489826464103906 -0.2989471191718187 Q 7.488234088267107 -0.28917653376487523 7.479306047289881 -0.2827507976740478 L 6.951739989544669 0.0969517895112082 Q 6.942811948567443 0.10337752560203561 6.933041363160499 0.10178514976523612 Q 6.923270777753556 0.10019277392843651 6.916845041662729 0.09126473295120985 L 6.857260943365965 0.008477443889653768 Q 6.8514193651015765 0.0003610430012658816 6.853011740938376 -0.009409542405677596 Q 6.8546041167751754 -0.01918012781262113 6.863532157752402 -0.025605863903448545 L 7.1914347536432714 -0.2616056257847461 L 6.924076368541906 -0.22565435437482428 Q 6.913850818610163 -0.2244551343810685 6.903496075376781 -0.22685915030670678 Q 6.893141332143398 -0.2292631662323451 6.8855472803996935 -0.23981448738724936 L 6.858091862557067 -0.27796157156267226 Q 6.850497810813362 -0.28851289271757646 6.851506028823723 -0.29909511821335877 Q 6.852514246834083 -0.309677343709141 6.8568982185014375 -0.3189929645912847 L 6.975880515687335 -0.561100818566258 L 6.647977919796465 -0.3251010566849605 Q 6.639049878819238 -0.31867532059413306 6.629279293412295 -0.32026769643093256 Q 6.619508708005351 -0.32186007226773206 6.613667129740962 -0.32997647315611994 L 6.5540830314442 -0.4127637622176761" fill="#fffcf7" fill-rule="nonzero"></path></g><g><path d=" M -2.5663817794747072 2.600539028893277 Q -2.5663861119132587 2.590539029831778 -2.5598889286083426 2.584036214356746 Q -2.5533917453034265 2.5775333988817133 -2.543391746241928 2.5775290664431623 L -2.307391768390557 2.577426820893356 L -1.8994962184504893 2.33625008001835 Q -1.8964966519758948 2.3352487803806348 -1.8934970855013002 2.3342474807429197 Q -1.8904975190267055 2.333246181105204 -1.886497519402106 2.3332444481297836 Q -1.878497520152907 2.333240982178943 -1.8724949212528772 2.3392383821527116 Q -1.8664923223528473 2.34523578212648 -1.8664888564020066 2.353235781375679 L -1.8664663277215405 2.4052357764954726 Q -1.8664624285268445 2.4142357756508215 -1.8709593953975334 2.4212377245912187 Q -1.8754563622682219 2.428239673531616 -1.8834550617858556 2.431243139200906 L -2.2073705488266686 2.6263834919091886 L -1.8832860966823621 2.8212431025993583 Q -1.8752839312138874 2.8262396361792668 -1.870781115551155 2.832737685971893 Q -1.866278299888422 2.839235735764519 -1.866274400693726 2.848235734919868 L -1.8662523052571154 2.899235730133512 Q -1.8662484060624194 2.9082357292888608 -1.872245806036188 2.9142383281888904 Q -1.8782432060099565 2.9202409270889205 -1.8862432052591556 2.9202443930397615 Q -1.8902432048837552 2.920246126015182 -1.89324363784606 2.9192474258405974 Q -1.8962440708083645 2.918248725666013 -1.8992449370145243 2.916250025585278 L -2.307348877248901 2.6764268116021936 L -2.543348855100272 2.676529057152 Q -2.5533488541617704 2.676533389590551 -2.559851669636803 2.6700362062856353 Q -2.566354485111835 2.663539022980719 -2.5663592507942417 2.6525390240130706 L -2.5663817794747072 2.600539028893277 M -2.5213936595027544 3.3827469876570935 Q -2.5335571604520886 3.2976115118279448 -2.512981311858478 3.233052357135114 Q -2.4924054632648676 3.1684932024422836 -2.4361910884722557 3.127126620921982 Q -2.379976713679644 3.08576003940168 -2.2884773503271614 3.0686466964760446 Q -2.2450611010767756 3.061433562550465 -2.2049682316456067 3.0557054022196737 Q -2.164875362214438 3.049977241888883 -2.1211762408489507 3.0447440027500274 Q -2.0295353364294275 3.03569167502884 -1.963774027752164 3.0611465425604862 Q -1.8980127190749003 3.086601410092132 -1.8591210060380041 3.14316937502862 Q -1.8202292930011077 3.199737339965108 -1.8086315362819754 3.2809130262208077 Q -1.7971752156203933 3.3610987650831454 -1.8186702935785908 3.4262943295302075 Q -1.840165371536788 3.4914898939772696 -1.8960968742142992 3.5348363702842955 Q -1.95202837689181 3.5781828465913215 -2.0426792289084807 3.5941648060660447 Q -2.0859540421013163 3.6023678873849865 -2.126046911532485 3.6080960477157777 Q -2.166139780963654 3.6138242080465686 -2.2099803383866914 3.618067499792062 Q -2.3024697541420265 3.6282512109641623 -2.3680896267617397 3.603786290825878 Q -2.433709499381453 3.579321370687594 -2.471540546996212 3.523106943390237 Q -2.5093715946109705 3.46689251609288 -2.5213936595027544 3.3827469876570935 M -2.437248131066968 3.3707249227653096 Q -2.426498990693138 3.4459609246608363 -2.3741017618072826 3.4874673145915844 Q -2.3217045329214274 3.5289737045223326 -2.21917420717492 3.5183655801680906 Q -2.1743437023585206 3.513980852365047 -2.1392005698941627 3.508959872322008 Q -2.104057437429805 3.5039388922789687 -2.0607826242369693 3.495735810960027 Q -1.9927591262100786 3.4839968282023253 -1.9535151356479385 3.4546513139836468 Q -1.9142711450857985 3.425305799764968 -1.8999882034630202 3.3838691302728345 Q -1.885705261840242 3.342432460780701 -1.8927770647177617 3.2929350911125916 Q -1.8998488675952814 3.2434377214444816 -1.9251638217069909 3.207658494254364 Q -1.9504787758187003 3.1718792670642464 -1.9963702610857088 3.154697253794902 Q -2.0422617463527173 3.1375152405255577 -2.11099242466736 3.1443044863164484 Q -2.154691546032847 3.149537725455304 -2.189834678497205 3.1545587054983426 Q -2.2249778109615628 3.159579685541382 -2.2693840076053107 3.166934255524512 Q -2.370782844891415 3.1854619590256514 -2.4093900581661067 3.2404754399477174 Q -2.4479972714407983 3.295488920869783 -2.437248131066968 3.3707249227653096 M -2.344605951824565 4.18394749848055 Q -2.368807091182144 4.103509293292996 -2.357509743271512 4.036931369548062 Q -2.34621239536088 3.9703534458031298 -2.296683674052389 3.9215128298616224 Q -2.2471549527438976 3.872672213920115 -2.154267977705889 3.844725660138149 L -1.765483319299378 3.727753486576517 Q -1.7549497448105316 3.7245842897558816 -1.7469967070740486 3.7284571686285135 Q -1.7390436693375655 3.732330047501145 -1.7358744725169304 3.7428636219899913 L -1.7211809236212572 3.791701103711006 Q -1.718011726800622 3.8022346781998526 -1.7223634045136555 3.8103317703372737 Q -1.7267150822266895 3.8184288624746947 -1.7372486567155359 3.8215980592953303 L -2.1279485104836553 3.9391464504607137 Q -2.2217930832024684 3.967381113044556 -2.2535471693139733 4.024971720049719 Q -2.285301255425478 4.082562327054882 -2.262252551275403 4.159170141519219 Q -2.2394919559272033 4.234820358302752 -2.181087805642174 4.2658075367719785 Q -2.122683655357145 4.296794715241206 -2.028839082638332 4.268560052657364 L -1.6381392288702123 4.15101166149198 Q -1.627605654381366 4.147842464671345 -1.619508562243945 4.152194142384378 Q -1.6114114701065239 4.156545820097412 -1.6085303820877646 4.166121796905454 L -1.5935487243902156 4.215916876307273 Q -1.5906676363714563 4.225492853115315 -1.5950193140844902 4.233589945252737 Q -1.5993709917975238 4.241687037390157 -1.6099045662863702 4.2448562342107925 L -1.9986892246928811 4.361828407772425 Q -2.09157619973089 4.389774961554391 -2.1598319931613172 4.376371728243624 Q -2.2280877865917446 4.362968494932858 -2.2741022451284274 4.314155898140883 Q -2.3201167036651102 4.265343301348908 -2.344605951824565 4.18394749848055 M -2.1390940319107155 4.736694939246291 Q -2.1437820945549944 4.726743955945968 -2.140459093138046 4.718545928037808 Q -2.1371360917210978 4.710347900129649 -2.1280897432662584 4.706086024998487 L -1.537363189165233 4.427785578933575 Q -1.5274122058649096 4.423097516289296 -1.5189749542905664 4.425755106526944 Q -1.5105377027162232 4.4284126967645925 -1.5058496400719443 4.438363680064916 L -1.4018598868715793 4.659094582363002 Q -1.353700697889443 4.761318319902689 -1.3735179688344203 4.843612157899792 Q -1.3933352397793977 4.925905995896895 -1.4874172637097294 4.970229497260985 Q -1.5570741468119942 5.003045935770936 -1.6173571560729418 4.988887588605942 Q -1.6776401653338895 4.974729241440947 -1.722956603263757 4.923120904388215 L -1.8979565951425879 5.175800549081667 Q -1.9021058416761427 5.181071578696816 -1.9066290159035626 5.183202516262398 Q -1.9138660946674344 5.186612016367327 -1.9220641225755937 5.183289014950379 Q -1.930262150483753 5.179966013533432 -1.933671650588683 5.17272893476956 L -1.9541286512182632 5.12930646218633 Q -1.9613738389412394 5.113927669813102 -1.9566416254368137 5.102854903431184 Q -1.951909411932388 5.091782137049266 -1.9463248234017299 5.082518640358316 L -1.7783447620506605 4.843094959431615 L -1.8529275768460045 4.684783861471922 L -2.086323366980866 4.794740239855915 Q -2.0953697154357056 4.799002114987077 -2.1040200607666066 4.795892207326687 Q -2.112670406097508 4.792782299666297 -2.117358468741787 4.782831316365973 L -2.1390940319107155 4.736694939246291 M -1.776033614979868 4.648557922857041 L -1.7057126753156866 4.797822672361894 Q -1.673748611831968 4.865670285773191 -1.6294836762139218 4.885716868392936 Q -1.585218740595876 4.90576345101268 -1.5291313801758704 4.879339825199472 Q -1.473948654601349 4.8533423868993815 -1.4605561837746053 4.806685214619497 Q -1.4471637129478618 4.760028042339612 -1.4795539639446968 4.691275794082832 L -1.5498749036088781 4.542011044577978 L -1.776033614979868 4.648557922857041 M -1.6166623601142933 5.692201160094869 Q -1.6232330176181324 5.683379229469023 -1.6216040536140448 5.674684606057202 Q -1.6199750896099572 5.665989982645381 -1.6119551526773699 5.660016657641891 L -1.0882532709794144 5.2699585349139815 Q -1.0794313403535685 5.263387877410142 -1.0706343863452923 5.264317178317426 Q -1.0618374323370166 5.26524647922471 -1.0552667748331772 5.274068409850556 L -0.9095176447480167 5.469754871005688 Q -0.8420190722085776 5.560380158343925 -0.8451007929282555 5.6449703646175 Q -0.8481825136479332 5.729560570891074 -0.9315898577468418 5.791683150927372 Q -0.9933433721277647 5.837677753454247 -1.0552373675142506 5.835771622530713 Q -1.1171313629007367 5.833865491607178 -1.171793188095688 5.792283225358734 L -1.293134305448763 6.074680699213418 Q -1.2961542701072684 6.080670675295289 -1.3001642385735621 6.0836573377970335 Q -1.306580188119632 6.0884359977998255 -1.315274811531453 6.086807033795738 Q -1.323969434943274 6.085178069791651 -1.3287480949460662 6.07876212024558 L -1.357420054962819 6.040266422969161 Q -1.3675747074687523 6.026632530183762 -1.365135424232216 6.014840588134551 Q -1.3626961409956795 6.0030486460853405 -1.359062192758445 5.9928606914226465 L -1.2419690072213334 5.724849150811479 L -1.3465021947824116 5.5845002544912 L -1.553416567643166 5.7386120395812465 Q -1.5614365045757532 5.744585364584737 -1.5705321248342037 5.743255066830824 Q -1.5796277450926541 5.741924769076911 -1.5861984025964933 5.733102838451065 L -1.6166623601142933 5.692201160094869 M -1.278332730855419 5.533726991961533 L -1.179772868297831 5.666055951349225 Q -1.1349729307716545 5.726205478343631 -1.0876088269210906 5.737063271233209 Q -1.0402447230705267 5.747921064122789 -0.9905211140884851 5.7108864491011495 Q -0.9415994987997021 5.674449166579859 -0.9377383368781615 5.626061756764747 Q -0.9338771749566213 5.577674346949634 -0.9792744449831468 5.5167228262619705 L -1.0778343075407348 5.384393866874278 L -1.278332730855419 5.533726991961533 M -1.1325704026295291 6.29981365053438 Q -1.1402922402073374 6.2919795440491475 -1.1398749068721414 6.283143491033953 Q -1.1394575735369454 6.2743074380187585 -1.1323356585503712 6.267287585675296 L -0.6672746099270758 5.808891227647224 Q -0.6594405034418441 5.801169390069415 -0.6505993472944938 5.800879635038109 Q -0.6417581911471433 5.800589880006804 -0.634036353569335 5.808423986492035 L -0.3441164517843519 6.10255907543755 Q -0.3363946142065437 6.110393181922781 -0.3368119475417396 6.119229234937976 Q -0.3372292808769356 6.128065287953171 -0.34506338736216724 6.135787125530979 L -0.37212666431114916 6.162462564436135 Q -0.3799607707963808 6.170184402013944 -0.38844583119440257 6.170123164428076 Q -0.39693089159242434 6.170061926842209 -0.40465272917023265 6.162227820356978 L -0.6433277088479427 5.920082710813454 L -0.7992976470539177 6.0738174771352735 L -0.5760663425318242 6.300294373708333 Q -0.5683445049540159 6.308128480193565 -0.5687618382892119 6.316964533208759 Q -0.5691791716244079 6.325800586223955 -0.5770132781096395 6.333522423801763 L -0.603364363559964 6.359495877472573 Q -0.6104862785465383 6.366515729816034 -0.6193274346938887 6.36680548484734 Q -0.6281685908412391 6.367095239878646 -0.6358904284190474 6.359261133393415 L -0.8591217329411409 6.1327842368203545 L -1.0207892031363754 6.292134885016943 L -0.7764983415838956 6.539977526549726 Q -0.7687765040060873 6.547811633034957 -0.7688377415919546 6.556296693432979 Q -0.7688989791778219 6.564781753831001 -0.7767330856630535 6.572503591408809 L -0.8045085541106929 6.599881015548311 Q -0.8116304690972671 6.606900867891773 -0.8204716252446176 6.6071906229230795 Q -0.8293127813919681 6.607480377954385 -0.8370346189697764 6.599646271469153 L -1.1325704026295291 6.29981365053438 M -0.61042203912997 6.796965088509883 Q -0.6190828149949014 6.790183424892641 -0.6197995278746756 6.781366604453959 Q -0.6205162407544499 6.772549784015276 -0.6143510920115027 6.7646763514107935 L -0.21115036422276107 6.2497538590775985 Q -0.20498521547981396 6.241880426473116 -0.19625380923420843 6.240461784525969 Q -0.187522402988603 6.239043142578824 -0.1788616271236716 6.245824806196066 L -0.13713243431991118 6.278500094533686 Q -0.12925900171542803 6.284665243276633 -0.12814861720542958 6.293790321152462 Q -0.12703823269543124 6.302915399028292 -0.1332033814383784 6.310788831632776 L -0.49694715727225847 6.775321355297278 L -0.23554919480341951 6.980004293563122 Q -0.2268884189384881 6.9867859571803645 -0.22577803442848965 6.995911035056194 Q -0.22466764991849125 7.005036112932023 -0.23144931353573311 7.0136968887969555 L -0.2561099085075216 7.045190619214887 Q -0.2622750572504687 7.053064051819371 -0.27140013512629835 7.054174436329369 Q -0.280525213002128 7.0552848208393675 -0.28918598886705943 7.048503157222125 L -0.61042203912997 6.796965088509883 M -0.08358213072078308 7.182576008120734 Q -0.09283644492022863 7.176629776650472 -0.09437057043295291 7.167917919276111 Q -0.0959046959456772 7.159206061901751 -0.09049903097271128 7.1507930489931635 L 0.2630314582592597 6.6005820047715815 Q 0.2684371232322256 6.592168991862994 0.2769986132098056 6.589943932456193 Q 0.28556010318738556 6.587718873049391 0.2948144173868311 6.593665104519653 L 0.33940338580234153 6.622315128876373 Q 0.3486577000017871 6.628261360346635 0.35019182551451145 6.636973217720996 Q 0.3517259510272357 6.645685075095358 0.3463202860542698 6.654098088003944 L -0.007210203177701213 7.204309132225526 Q -0.01261586815066712 7.212722145134113 -0.021177358128247087 7.214947204540914 Q -0.02973884810582708 7.217172263947717 -0.03899316230527264 7.211226032477454 L -0.08358213072078308 7.182576008120734 M 0.16973343674614852 7.346566879088755 Q 0.16258872783590378 7.342967832744532 0.15992948091138798 7.33491001630368 Q 0.15727023398687218 7.326852199862829 0.1608692803310958 7.3197074909525845 Q 0.16311868429623558 7.3152420478836815 0.1667110576681839 7.310333396994026 L 0.6792699069748577 6.844075500548916 Q 0.6873410693602595 6.836944137583222 0.6962919744148914 6.834734771451734 Q 0.7052428794695234 6.832525405320246 0.7177461200624515 6.838823736422638 L 0.7784761457995317 6.869415630348539 Q 0.7909793863924601 6.87571396145093 0.7945317219307564 6.884221658684809 Q 0.7980840574690529 6.892729355918688 0.7971576039938957 6.9034597652286065 L 0.7266776185086146 7.592408654222554 Q 0.7257645109780081 7.598666947491293 0.7235151070128684 7.603132390560196 Q 0.7199160606686447 7.610277099470441 0.7118582442277933 7.612936346394957 Q 0.7038004277869421 7.615595593319473 0.6966557188766973 7.611996546975249 L 0.6511081995738872 7.589052626530823 Q 0.6403911362085201 7.5836540570144875 0.6381784335908945 7.57582118097015 Q 0.635965730973269 7.567988304925813 0.6364289577108476 7.562623100270854 L 0.6511921565628849 7.411061073497473 L 0.3582590912428509 7.263500173384303 L 0.24525614487494868 7.3655753129246095 Q 0.24211365229602833 7.369590875200485 0.23405583585517706 7.372250122125001 Q 0.2259980194143258 7.374909369049516 0.2152809560489587 7.369510799533181 L 0.16973343674614852 7.346566879088755 M 0.4228484092428922 7.199741095596983 L 0.6639823349636519 7.321208909714531 L 0.7031230536281962 6.9434285447636475 L 0.4228484092428922 7.199741095596983 M 0.9557651320990977 7.713976165794805 Q 0.9453252990750637 7.71051063749016 0.9416786568783346 7.702451357082516 Q 0.9380320146816057 7.694392076674872 0.9411824949585547 7.684901319380296 L 1.146908857043325 7.065154868044457 Q 1.1503743853479689 7.054715035020423 1.1581166519047317 7.050436330945118 Q 1.1658589184614943 7.046157626869812 1.1762987514855283 7.049623155174456 L 1.436345501356922 7.135946314762859 Q 1.507526181066245 7.1595749168399765 1.5448886015369578 7.197792053527197 Q 1.5822510220076706 7.236009190214417 1.5903732087572817 7.282958951474773 Q 1.5984953955068928 7.329908712735129 1.582112898066758 7.379260650666926 Q 1.5691959289312671 7.418172755574689 1.5470894897665892 7.441917341219809 Q 1.5249830506019117 7.465661926864928 1.5001731475004032 7.476918867305996 Q 1.4753632443988947 7.488175807747065 1.4541803252622505 7.491680652515438 Q 1.4852083661848954 7.521999964455234 1.5006081107424727 7.572419185666607 Q 1.51600785530005 7.62283840687798 1.496789925610661 7.680732026374897 Q 1.4794622840874414 7.732931191495067 1.441243181577035 7.768712474357746 Q 1.4030240790666286 7.804493757220425 1.3473810096968655 7.814998462409612 Q 1.2917379403271025 7.8255031675988 1.2234044878061523 7.8028197096047665 L 0.9557651320990977 7.713976165794805 M 1.0524647020517077 7.660729633785853 L 1.23658539356649 7.721848951158664 Q 1.2973262402517791 7.742012024931138 1.341570571752118 7.719821055369442 Q 1.385814903252457 7.697630085807746 1.401882352664897 7.649227223605406 Q 1.4185798981327267 7.5989262099441515 1.3962314045571833 7.555156416308542 Q 1.37388291098164 7.511386622672931 1.313142064296351 7.491223548900457 L 1.1290213727815686 7.430104231527647 L 1.0524647020517077 7.660729633785853 M 1.1542252149971608 7.354178173171036 L 1.3288551492173666 7.412147010266898 Q 1.3895959959026556 7.432310084039371 1.4302094117917572 7.4147089349343025 Q 1.470822827680859 7.397107785829234 1.486890277093299 7.348704923626894 Q 1.502957726505739 7.300302061424555 1.480144524181399 7.2642804318152665 Q 1.4573313218570594 7.228258802205978 1.3965904751717704 7.208095728433505 L 1.2219605409515644 7.150126891337643 L 1.1542252149971608 7.354178173171036 M 1.7111130564179295 7.936854990731732 Q 1.7003021013422654 7.934824411909825 1.6956051042412115 7.927328531825893 Q 1.6909081071401575 7.919832651741961 1.6927540878873448 7.910004510764084 L 1.813481228753403 7.2672440908109674 Q 1.8153272095005903 7.257415949833091 1.8224239815729881 7.252135246645784 Q 1.8295207536453857 7.246854543458477 1.8403317087210498 7.248885122280384 L 1.8924208559037947 7.2586688202404765 Q 1.9022489968816712 7.260514800987664 1.9074374010316189 7.268102980108956 Q 1.9126258051815668 7.275691159230247 1.9107798244343792 7.285519300208123 L 1.8018669603503208 7.865379617902831 L 2.1281612408158175 7.926666178709454 Q 2.1389721958914816 7.92869675753136 2.1441606000414293 7.936284936652652 Q 2.149349004191377 7.943873115773943 2.1473184253694706 7.954684070849607 L 2.1399345023807212 7.993996634761113 Q 2.1380885216335335 8.00382477573899 2.130500342512242 8.009013179888937 Q 2.122912163390951 8.014201584038885 2.112101208315287 8.01217100521698 L 1.7111130564179295 7.936854990731732 M 2.3809345699571725 8.042189295362498 Q 2.369952658596835 8.041558721914203 2.3643351367106438 8.034725461502205 Q 2.3587176148244526 8.027892201090209 2.359290863413812 8.017908645308085 L 2.3967239962989844 7.365982452735335 Q 2.39735456974728 7.355000541374998 2.4037173147996382 7.348855179270232 Q 2.410080059851997 7.342709817165467 2.4210619712123345 7.343340390613762 L 2.8333828250140884 7.367015557354308 Q 2.8443647363744256 7.367646130802603 2.8499822582606167 7.3744793912146 Q 2.8555997801468083 7.3813126516265966 2.8549692066985126 7.392294562986934 L 2.8527908620589466 7.430232074959008 Q 2.8521602886106514 7.441213986319346 2.845826205987761 7.446860170635005 Q 2.8394921233648702 7.452506354950664 2.8285102120045327 7.451875781502368 L 2.48906931541229 7.432385329464147 L 2.476515171305318 7.65102520109268 L 2.793992245176886 7.669254506234311 Q 2.8049741565372237 7.669885079682606 2.810591678423415 7.676718340094602 Q 2.816209200309606 7.6835516005066 2.8155786268613108 7.694533511866937 L 2.8134576070806805 7.731472668260799 Q 2.812884358491321 7.741456224042923 2.806521613438963 7.747601586147689 Q 2.800158868386604 7.753746948252454 2.7891769570262666 7.753116374804159 L 2.4716998831546984 7.734887069662529 L 2.458687140176239 7.961513785916761 L 2.8061148813941816 7.98146283682647 Q 2.8170967927545187 7.982093410274765 2.822742977070178 7.988427492897656 Q 2.828389161385837 7.994761575520546 2.827758587937542 8.005743486880885 L 2.82552291843904 8.044679354431171 Q 2.8249496698496808 8.054662910213295 2.818586924797322 8.060808272318061 Q 2.8122241797449634 8.066953634422827 2.8012422683846263 8.066323060974531 L 2.3809345699571725 8.042189295362498 M 3.4132497293720636 8.040029640389292 Q 3.402344957311478 8.04147392093914 3.395543461317158 8.035817981385073 Q 3.388741965322838 8.030162041831007 3.3874289830047957 8.02024861268502 L 3.301691237636628 7.372901689452057 Q 3.3002469570867814 7.361996917391472 3.3053415760676463 7.354765399055754 Q 3.310436195048511 7.347533880720037 3.321340967109097 7.34608960017019 L 3.370908112839033 7.339524688579979 Q 3.3818128848996185 7.338080408030132 3.3891100523512376 7.343670698468296 Q 3.396407219802857 7.34926098890646 3.3978515003527034 7.360165760967046 L 3.4304134618401547 7.606018803787528 L 3.6614896726961272 7.317178389758524 Q 3.6649298514273054 7.312687825172913 3.6735598197251678 7.30549243448318 Q 3.68218978802303 7.298297043793448 3.6980512746566094 7.29619627208458 L 3.7515837920449404 7.289106167567151 Q 3.7595145353617303 7.288055781712718 3.766250382240148 7.293216049809484 Q 3.7729862291185654 7.298376317906251 3.7740366149729994 7.30630706122304 Q 3.7750870008274333 7.314237804539831 3.77177812032806 7.319719712040041 L 3.5051052257219357 7.659676425876364 L 3.874716759352117 7.944613812344945 Q 3.880461263315936 7.949905378673516 3.8815116491703696 7.957836121990305 Q 3.8825620350248036 7.965766865307095 3.877401766928037 7.972502712185513 Q 3.87224149883127 7.979238559063931 3.8643107555144804 7.980288944918365 L 3.808795552296952 7.9876416458994015 Q 3.791942722748774 7.989873715840074 3.782167198010658 7.984611670981421 Q 3.772391673272542 7.979349626122767 3.76790110868693 7.975909447391589 L 3.4474822319747056 7.734893382685361 L 3.4835892457208715 8.007512684200009 Q 3.484902228038914 8.017426113345996 3.4793119376007495 8.024723280797616 Q 3.4737216471625856 8.032020448249234 3.4628168751019994 8.033464728799082 L 3.4132497293720636 8.040029640389292 M 4.0975266324714275 7.926029811139815 Q 4.086813514031292 7.928525626294753 4.079495195017844 7.923556500937366 Q 4.072176876004398 7.918587375579979 4.069907953136272 7.908848176998037 L 3.921520397560858 7.271904589739045 Q 3.9192514746927327 7.262165391157104 3.9236201939776163 7.254473558357966 Q 3.9279889132624994 7.2467817255588285 3.9387020317026353 7.244285910403891 L 3.990319784186927 7.232260619202825 Q 4.001032902627063 7.229764804047886 4.00835122164051 7.234733929405273 Q 4.015669540653956 7.239703054762661 4.017938463522082 7.249442253344602 L 4.166326019097496 7.8863858406035945 Q 4.168594941965622 7.896125039185536 4.164226222680738 7.903816871984674 Q 4.1598575033958545 7.911508704783811 4.149144384955719 7.914004519938749 L 4.0975266324714275 7.926029811139815 M 4.456627816440984 7.835697180388046 Q 4.446227738751738 7.839280249471617 4.438437701008222 7.8350891503371916 Q 4.430647663264704 7.830898051202767 4.4273903277341855 7.821443435121633 L 4.214686317591309 7.204057005023644 Q 4.211103248507738 7.193656927334398 4.214658750061582 7.18555702556335 Q 4.218214251615424 7.177457123792302 4.22861432930467 7.173874054708731 L 4.459306961684318 7.094395067764074 Q 4.566144123401121 7.0575871762692115 4.645808467848349 7.086198226997793 Q 4.7254728122955765 7.1148092777263745 4.759349101812972 7.213137284970158 Q 4.784430585397966 7.285937828794883 4.76382839080862 7.344333458580875 Q 4.743226196219274 7.402729088366868 4.687014667591781 7.442191273422445 L 4.91926088035303 7.6435210940105955 Q 4.924051666495681 7.648216663000119 4.9256803342609405 7.652943971040686 Q 4.9282862026853556 7.660507663905593 4.92409510355093 7.668297701649109 Q 4.919904004416505 7.676087739392627 4.912340311551598 7.678693607817042 L 4.86695815436216 7.694328818363532 Q 4.8508853070242335 7.6998662887654135 4.84039001218186 7.693963002716809 Q 4.829894717339487 7.688059716668204 4.82129034571334 7.681504963513496 L 4.601462090061734 7.488589080245238 L 4.436006308641905 7.545592452029316 L 4.52004556532929 7.78952154692255 Q 4.523302900859808 7.798976163003683 4.519274668501909 7.8072389315512565 Q 4.515246436144009 7.81550170009883 4.504846358454763 7.819084769182401 L 4.456627816440984 7.835697180388046 M 4.408318956632495 7.465228215339685 L 4.564320121971191 7.411482179086126 Q 4.635229742579689 7.387052162607235 4.659951215158747 7.345217980488746 Q 4.684672687737805 7.303383798370257 4.664477207448589 7.244765178667233 Q 4.644607460712424 7.1870920205723205 4.599674638318628 7.168726523799089 Q 4.554741815924833 7.150361027025856 4.482886733708222 7.175116777057799 L 4.326885568369526 7.228862813311359 L 4.408318956632495 7.465228215339685 M 5.125210713012091 7.590045959639316 Q 5.118102019496142 7.593715629446847 5.1100182470035325 7.591136361665533 Q 5.101934474510922 7.588557093884218 5.098264804703392 7.581448400368269 Q 5.095971261073686 7.577005466920801 5.094107595407531 7.571215238057898 L 5.017692548717929 6.882539885922056 Q 5.01665980821649 6.871819184123354 5.020127662687298 6.863276702904804 Q 5.023595517158106 6.854734221686252 5.036035730811017 6.848312299523074 L 5.0964596256965855 6.817120106159065 Q 5.108899839349497 6.810698183995886 5.1178721985316 6.812818743051259 Q 5.126844557713704 6.814939302106631 5.134985991731091 6.821990334097803 L 5.651251449720054 7.283604866892695 Q 5.655780875454689 7.288018969577774 5.658074419084396 7.292461903025242 Q 5.661744088891926 7.299570596541192 5.659164821110613 7.307654369033801 Q 5.656585553329299 7.3157381415264116 5.649476859813349 7.319407811333942 L 5.604158938649173 7.342801956356949 Q 5.593495898375249 7.348306461068245 5.585856419227386 7.34549783892396 Q 5.578216940079523 7.342689216779675 5.574146223070829 7.3391637007840895 L 5.460137316065011 7.238213370802763 L 5.168680881911092 7.388669832911513 L 5.184945253072607 7.540078122746385 Q 5.18635021001282 7.544979764919794 5.183770942231506 7.553063537412404 Q 5.181191674450192 7.561147309905014 5.170528634176268 7.56665181461631 L 5.125210713012091 7.590045959639316 M 5.155000945475455 7.2989488245627605 L 5.394919351638743 7.175097468558606 L 5.112118550847932 6.921574871790435 L 5.155000945475455 7.2989488245627605 M 5.886198879087701 7.168915292122853 Q 5.877281570024107 7.175355913138279 5.868611761753032 7.17359966015457 Q 5.859941953481956 7.171843407170861 5.854086843467932 7.163736762567595 L 5.471748159552161 6.634372869974271 Q 5.465307538536734 6.6254555609106776 5.466365703789578 6.616673175910139 Q 5.467423869042423 6.607890790909602 5.476341178106017 6.601450169894175 L 5.513631743281044 6.574516663829665 Q 5.523359716804964 6.567490531812836 5.531444014074637 6.5684361203362185 Q 5.53952831134431 6.5693817088596 5.542095508808845 6.571228191239178 L 6.109846720352531 6.790277413540187 L 5.817091219651327 6.384945183376846 Q 5.810650598635901 6.376027874313253 5.811708763888745 6.367245489312714 Q 5.812766929141589 6.358463104312177 5.821684238205183 6.35202248329675 L 5.860596132300864 6.323917955229435 Q 5.869513441364457 6.317477334214008 5.878588581865697 6.318940831697016 Q 5.887663722366935 6.320404329180024 5.894104343382362 6.329321638243617 L 6.275857516296731 6.857874866376614 Q 6.281712626310755 6.865981510979881 6.280541884328448 6.875461983711284 Q 6.279371142346141 6.884942456442686 6.271264497742875 6.89079756645671 L 6.232352603647194 6.918902094524025 Q 6.2234352945836005 6.925342715539452 6.2154635740433894 6.923699039285205 Q 6.2074918535031784 6.9220553630309585 6.20469950257972 6.921605056113109 L 5.6406865105033726 6.706023645112332 L 5.931099967198967 7.108113217434366 Q 5.936955077212991 7.116219862037633 5.935491579729983 7.125295002538872 Q 5.934028082246975 7.134370143040111 5.925110773183381 7.140810764055537 L 5.886198879087701 7.168915292122853 M 6.486615221968563 6.714160784982614 Q 6.480881623337304 6.719739839269464 6.472397133648721 6.719623931011157 Q 6.463912643960139 6.719508022752851 6.458333589673289 6.713774424121592 Q 6.454846680744008 6.710190924977055 6.451379089857777 6.705193344217754 L 6.177914631977794 6.068537872022308 Q 6.17380761343486 6.058581346589809 6.174640221522075 6.04939947511537 Q 6.175472829609288 6.040217603640932 6.185506627213992 6.030454258638944 L 6.234242215579695 5.983032297200716 Q 6.244276013184399 5.973268952198728 6.253477202701888 5.972687478671179 Q 6.262678392219378 5.972106005143629 6.27251900939357 5.976483476289278 L 6.900749882582716 6.267934964485861 Q 6.906367572955668 6.270840399887593 6.90985448188495 6.27442389903213 Q 6.9154335361718005 6.28015749766339 6.915317627913494 6.288641987351972 Q 6.915201719655187 6.297126477040554 6.909468121023928 6.302705531327404 L 6.87291642974965 6.338272002406075 Q 6.864316031802762 6.346640583836351 6.856189892028634 6.346175984685115 Q 6.848063752254505 6.345711385533881 6.843143443667409 6.343522649961057 L 6.704696739485909 6.280107272478301 L 6.469619195604282 6.508848498239164 L 6.529228918605968 6.64897587216611 Q 6.531999127706342 6.653256753096504 6.531883219448035 6.6617412427850855 Q 6.5317673111897285 6.670225732473668 6.52316691324284 6.678594313903943 L 6.486615221968563 6.714160784982614 M 6.430428657058956 6.426988241163295 L 6.623937610863954 6.238695158982098 L 6.279612599982473 6.07841326081057 L 6.430428657058956 6.426988241163295 M 7.383094017007182 5.710874406101457 Q 7.333636714604 5.78244936847658 7.2778837855704825 5.815639892789757 Q 7.222130856536966 5.848830417102933 7.169259121747966 5.8505853132257055 Q 7.116387386958967 5.852340209348477 7.076583503781529 5.827267297989865 Q 7.070001898045885 5.822719500067733 7.068349429197406 5.813676859595791 Q 7.066696960348928 5.804634219123849 7.071813233011326 5.797229912671249 L 7.100805444764915 5.755272176106523 Q 7.107627141648113 5.7453997675030575 7.115974194391444 5.743874411642923 Q 7.124321247134775 5.742349055782789 7.132039802350952 5.7452514522710105 Q 7.155195467999481 5.7539586417356725 7.185329954912996 5.751686484509781 Q 7.215464441826511 5.749414327283889 7.24839715621878 5.729019810306101 Q 7.2813298706110485 5.708625293328313 7.313164456065969 5.662554053178809 Q 7.362053283728884 5.591801791520641 7.359984138842535 5.541143932905819 Q 7.357914993956186 5.490486074290997 7.315957257391458 5.461493862537408 Q 7.287162732298018 5.441597246628082 7.257252459967748 5.447063105126896 Q 7.227342187637476 5.452528963625708 7.18834338687751 5.479063724587218 Q 7.149344586117544 5.505598485548727 7.093097339959784 5.551818040930279 Q 7.034321968864268 5.5999372237224305 6.986467663407593 5.62521498962963 Q 6.938613357950917 5.650492755536829 6.894814275027304 5.648792656995424 Q 6.8510151921036915 5.647092558454018 6.804121251237232 5.61468949825883 Q 6.759695412521638 5.583991862284441 6.741216399518759 5.53597336503141 Q 6.72273738651588 5.487954867778377 6.733435979306649 5.428494459839167 Q 6.744134572097418 5.369034051899957 6.787907127097935 5.305686096694388 Q 6.823152560994455 5.254678652243151 6.86316119824661 5.225802902119121 Q 6.9031698354987645 5.196927151995089 6.943416822163299 5.1870564851267975 Q 6.983663808827834 5.177185818258507 7.0186744772561935 5.181929561105613 Q 7.053685145684553 5.186673303952719 7.078934641933483 5.202904845443757 Q 7.08469354695217 5.206884168625622 7.087198727911049 5.214692758022132 Q 7.089703908869926 5.222501347418641 7.083450686726995 5.23155105530515 L 7.053321525492874 5.275154193303789 Q 7.049342202311008 5.280913098322476 7.041787838891188 5.284809454738577 Q 7.0342334754713685 5.288705811154676 7.022909868623793 5.285743391879567 Q 6.985768290787021 5.267372131830376 6.93999368110161 5.284362867781132 Q 6.894219071416201 5.301353603731889 6.857836688039147 5.354006449617037 Q 6.820885829921828 5.40748199621914 6.818430120864923 5.4550132437624965 Q 6.815974411808017 5.502544491305853 6.859577549806655 5.532673652539975 Q 6.88754937418314 5.552001793709035 6.9168611603797 5.549161161742877 Q 6.94617294657626 5.546320529776718 6.983466323115427 5.522253870966075 Q 7.020759699654594 5.4981872121554325 7.073910346134333 5.454689984901436 Q 7.137487741128669 5.401380371830863 7.186636120447666 5.373350266402664 Q 7.235784499766663 5.345320160974465 7.279740707072065 5.345913321428782 Q 7.323696914377466 5.346506481883099 7.370590855243926 5.378909542078286 Q 7.422421000412118 5.414723450715074 7.440271515887843 5.46716970031646 Q 7.458122031363566 5.5196159499178465 7.443631251166166 5.581925798972956 Q 7.429140470968765 5.644235648028067 7.383094017007182 5.710874406101457 M 7.725444735029879 5.122127027336178 Q 7.7208678098555 5.131018132776343 7.712113589956046 5.133822349949104 Q 7.703359370056593 5.136626567121865 7.694468264616428 5.132049641947486 L 7.171671264734717 4.8629264416939915 L 7.083794301386637 5.0336356661451624 Q 7.079217376212258 5.042526771585328 7.070463156312804 5.045330988758089 Q 7.06170893641335 5.0481352059308495 7.052817830973185 5.0435582807564705 L 7.0154751881244914 5.0243351950240775 Q 7.00569497214031 5.0193005773322605 7.002890754967549 5.010546357432807 Q 7.000086537794788 5.001792137533353 7.004663462969167 4.992901032093188 L 7.225271256374242 4.564349749877227 Q 7.230305874066059 4.554569533893046 7.239060093965513 4.551765316720285 Q 7.247814313864967 4.548961099547524 7.257594529849149 4.553995717239341 L 7.294937172697842 4.573218802971733 Q 7.303828278138007 4.577795728146112 7.306632495310768 4.586549948045566 Q 7.309436712483529 4.59530416794502 7.304402094791712 4.605084383929202 L 7.21698282396107 4.774904497836356 L 7.739779823842781 5.044027698089851 Q 7.748670929282946 5.04860462326423 7.751475146455707 5.057358843163684 Q 7.754279363628468 5.066113063063137 7.749244745936651 5.075893279047318 L 7.725444735029879 5.122127027336178 M 8.037126185740254 4.428325264178164 Q 8.008486436564471 4.509416353498436 7.9603560663938815 4.5571103517292615 Q 7.912225696223292 4.604804349960087 7.843246466967507 4.615439947323556 Q 7.7742672377117215 4.626075544687025 7.685243629531624 4.598876331709506 Q 7.643422144888976 4.585166356425621 7.605233899336987 4.5716790326858625 Q 7.567045653784999 4.558191708946105 7.525890209820858 4.542595894375702 Q 7.440473683998045 4.508186344591364 7.393973327641857 4.455174866034852 Q 7.347472971285668 4.402163387478341 7.339194673030346 4.334016709070689 Q 7.330916374775024 4.265870030663037 7.358224042593793 4.188550619915802 Q 7.3851986900733095 4.112174128811825 7.434438490056785 4.0643416910986225 Q 7.48367829004026 4.016509253385421 7.553323559974552 4.0039878167354335 Q 7.622968829908843 3.9914663800854466 7.710716498106429 4.019275492366972 Q 7.75287100308833 4.032042548007598 7.791059248640319 4.045529871747356 Q 7.829247494192307 4.0590171954871135 7.870069917817196 4.075555929700776 Q 7.95676238362252 4.109355580181108 8.003595760317962 4.16142413909436 Q 8.050429137013404 4.213492698007613 8.057931025795094 4.280834896254382 Q 8.065432914576784 4.3481770945011515 8.037126185740254 4.428325264178164 M 7.956978016063241 4.400018535341635 Q 7.982287561846491 4.3283566424539535 7.955064744710362 4.267306104150242 Q 7.927841927574233 4.206255565846531 7.832053285675572 4.168182792330407 Q 7.790287942407425 4.151311037777491 7.756814295071732 4.1394888157339995 Q 7.723340647736038 4.127666593690508 7.681186142754137 4.114899538049882 Q 7.615458646690761 4.093806973927924 7.5670871240581725 4.1016457109566185 Q 7.518715601425585 4.109484447985313 7.486869415329528 4.139597907287348 Q 7.45502322923347 4.1697113665893815 7.4383722122708065 4.21685734875233 Q 7.421721195308142 4.264003330915279 7.427591794942443 4.307437603787445 Q 7.433462394576745 4.35087187665961 7.466181961264429 4.387350362864087 Q 7.498901527952112 4.423828849068564 7.562963922319222 4.449636011406818 Q 7.6041193662833635 4.465231825977221 7.637593013619057 4.477054048020713 Q 7.67106666095475 4.488876270064204 7.713831065240657 4.502919265687343 Q 7.812283869853345 4.5334486820573945 7.871976170066668 4.502564555143356 Q 7.931668470279992 4.471680428229317 7.956978016063241 4.400018535341635 M 8.194532933115623 3.8743169932084047 Q 8.192412175503875 3.885110620362991 8.184877346215213 3.889744878404006 Q 8.17734251692655 3.894379136445021 8.1675301286042 3.8924511749797968 L 7.526781171154678 3.766555291300662 Q 7.515987544000091 3.764434533688916 7.510766268469697 3.7572939257431095 Q 7.505544992939304 3.750153317797303 7.50766575055105 3.739359690642717 L 7.554708010302519 3.4999374155773517 Q 7.5764939748595515 3.389057427534785 7.641224178638491 3.3345138603729563 Q 7.70595438241743 3.279970293211127 7.808003220969881 3.300021092449458 Q 7.883558611051984 3.3148663957316833 7.923726042774274 3.3619947038790716 Q 7.9638934744965635 3.4091230120264604 7.969812466638551 3.477547901737903 L 8.26051260257754 3.3777208965486585 Q 8.266978424010517 3.3759339569310876 8.271884618171693 3.3768979376636996 Q 8.279734528829573 3.378440306835879 8.284368786870589 3.3859751361245416 Q 8.289003044911604 3.3935099654132044 8.287460675739425 3.4013598760710853 L 8.278206460706349 3.44845934001837 Q 8.274928926215468 3.4651404001663666 8.264555407553173 3.4712551455055456 Q 8.254181888890878 3.477369890844725 8.244193962521628 3.481522158519434 L 7.9670038578881615 3.5748315679768314 L 7.933264532246739 3.7465483636179746 L 8.186424150963395 3.7962897694207567 Q 8.196236539285747 3.798217730885981 8.20136141674288 3.8058489582479043 Q 8.206486294200012 3.813480185609828 8.204365536588266 3.8242738127644147 L 8.194532933115623 3.8743169932084047 M 7.8498592315067555 3.7301606911635696 L 7.881670595682953 3.5682562838447773 Q 7.896130306672134 3.4946633714271447 7.872354740878058 3.45228445601899 Q 7.848579175083981 3.4099055406108354 7.787742367485405 3.397952179526446 Q 7.727886798719064 3.3861916145885784 7.689450096739472 3.4158373552764427 Q 7.651013394759881 3.445483095964307 7.6363608876241775 3.520057247214175 L 7.60454952344798 3.6819616545329668 L 7.8498592315067555 3.7301606911635696 M 8.319414939106826 3.1075429414701197 Q 8.318799253698915 3.118525697566769 8.311973614873853 3.12415247769663 Q 8.30514797604879 3.1297792578264914 8.295163652324563 3.1292195438192993 L 7.64318731313257 3.0926702191496727 Q 7.63220455703592 3.0920545337417615 7.626050575019488 3.085700125402551 Q 7.619896593003056 3.0793457170633403 7.620512278410967 3.068362960966691 L 7.64362846690799 2.6560103911561344 Q 7.644244152315901 2.645027635059485 7.651069791140963 2.6394008549296237 Q 7.657895429966025 2.6337740747997627 7.668878186062675 2.634389760207674 L 7.706818616214735 2.6365166734350027 Q 7.717801372311385 2.637132358842914 7.723456138141605 2.6434587814817645 Q 7.729110903971827 2.6497852041206156 7.728495218563916 2.6607679602172647 L 7.709464942319393 3.000234966840968 L 7.928121631879955 3.012492703598469 L 7.945920537308655 2.6949912091680646 Q 7.946536222716566 2.6840084530714154 7.953361861541628 2.678381672941554 Q 7.960187500366691 2.672754892811693 7.97117025646334 2.673370578219604 L 8.008112254242977 2.6754415200462134 Q 8.018096577967205 2.6760012340534054 8.024250559983637 2.682355642392616 Q 8.030404542000069 2.6887100507318267 8.029788856592159 2.699692806828476 L 8.011989951163457 3.0171943012588804 L 8.2386340997034 3.029899809222135 L 8.258112147153676 2.682445343619051 Q 8.258727832561588 2.671462587522402 8.265054255200438 2.665807821692181 Q 8.27138067783929 2.66015305586196 8.282363433935938 2.6607687412698713 L 8.321302296460422 2.6629516258979193 Q 8.331286620184649 2.663511339905111 8.337440602201081 2.6698657482443218 Q 8.343594584217513 2.676220156583532 8.342978898809601 2.6872029126801813 L 8.319414939106826 3.1075429414701197 M 8.169701728662883 2.4281636511641733 Q 8.170089436760096 2.438156132459195 8.16384633418152 2.444903255564147 Q 8.157603231602943 2.451650378669099 8.147610750307921 2.4520380867663114 L 7.659977663110869 2.4709582419102736 Q 7.649985181815848 2.471345950007486 7.643238058710895 2.46510284742891 Q 7.636490935605943 2.458859744850334 7.636103227508731 2.4488672635553126 L 7.634280999451833 2.401902601468711 Q 7.633893291354621 2.3919101201736894 7.640136393933196 2.3851629970687376 Q 7.646379496511773 2.3784158739637853 7.656371977806794 2.378028165866573 L 8.144005065003848 2.359108010722611 Q 8.153997546298868 2.3587203026253984 8.16074466940382 2.3649634052039743 Q 8.167491792508773 2.37120650778255 8.167879500605984 2.3811989890775718 L 8.169701728662883 2.4281636511641733 M 8.335925855447732 2.4307209299159678 Q 8.336313563544945 2.4407134112109894 8.330070460966368 2.4474605343159412 Q 8.323827358387792 2.4542076574208935 8.313834877092772 2.454595365518106 L 8.250882244934136 2.4570379265305435 Q 8.239890515509611 2.4574644054374772 8.23314339240466 2.451221302858901 Q 8.226396269299707 2.444978200280325 8.226008561202494 2.4349857189853035 L 8.223527229380336 2.3710338386971657 Q 8.223139521283123 2.361041357402144 8.2293826238617 2.3542942342971918 Q 8.235625726440276 2.34754711119224 8.246617455864799 2.347120632285306 L 8.309570088023435 2.3446780712728685 Q 8.319562569318457 2.344290363175656 8.32630969242341 2.350533465754232 Q 8.33305681552836 2.356776568332808 8.333444523625573 2.3667690496278295 L 8.335925855447732 2.4307209299159678" fill="#fffcf7" fill-rule="nonzero"></path></g><g clip-path="url(#SvgjsClipPath1001)"><g clip-path="url(#a267ff6cd-4c44-4756-87b8-50c7ffae09401a3087fd-cb04-4555-a75c-685b6ae228e0)"><path d=" M 3.192293522970255 5.219296828880504 C 4.617239704521603 5.219296828880504 5.772388205213527 4.050915052340414 5.772388205213527 2.609644035460818 C 5.772388205213527 1.1683730185812236 4.617239704521603 0 3.192293522970255 0 C 1.7673473414189071 0 0.6121988407269829 1.1683730185812236 0.6121988407269829 2.6096440354608177 C 0.6121988407269829 4.050915052340414 1.7673473414189071 5.219296828880504 3.192293522970255 5.219296828880504" fill="#f7ca4d" transform="matrix(1,0,0,1,0,0)" fill-rule="nonzero"></path></g><g clip-path="url(#a267ff6cd-4c44-4756-87b8-50c7ffae09401a3087fd-cb04-4555-a75c-685b6ae228e0)"><path d=" M 1.805190481683582 4.4701322694311765 L 2.007411751924577 4.044197697889359 C 2.1007278036533688 4.231749387027987 2.2528710650923713 4.353852849552887 2.4247197339823154 4.353852849552887 C 2.7085739388234105 4.353852849552887 2.938689308056072 4.020673820372369 2.938689308056072 3.6096803266577986 C 2.938689308056072 3.5875839964361433 2.9380237031821737 3.5657241311038987 2.9367187673109774 3.5441182465787997" fill="none" transform="matrix(1,0,0,1,0,0)" fill-rule="nonzero" stroke-dasharray="none" stroke-miterlimit="4" stroke-linejoin="round" stroke-linecap="round" stroke-width="0.16257399044970083" stroke="#fffcf7"></path></g><g clip-path="url(#a267ff6cd-4c44-4756-87b8-50c7ffae09401a3087fd-cb04-4555-a75c-685b6ae228e0)"><path d=" M 4.283114815783439 3.959770974410659 C 4.10815707149568 4.0937414712004605 3.9770679431731506 4.278236632694475 3.9222693945417992 4.4684069515343605 C 3.9116372324771578 4.045765372526568 3.7039772697797027 3.7033817285767423 3.39532928338589 3.507299787501574" fill="none" transform="matrix(1,0,0,1,0,0)" fill-rule="nonzero" stroke-dasharray="none" stroke-miterlimit="3" stroke-linejoin="round" stroke-linecap="round" stroke-width="0.16257399044970083" stroke="#fffcf7"></path></g><g clip-path="url(#a267ff6cd-4c44-4756-87b8-50c7ffae09401a3087fd-cb04-4555-a75c-685b6ae228e0)"><path d=" M 2.4835732175691274 1.2561978301003531 L 1.9583759402277678 1.2561978301003531 C 1.8957842169836123 1.2562087542967624 1.8407802577330814 1.29770384693908 1.8235821953044609 1.3578864905060783 L 1.5722025019425172 2.237667248499113 L 4.797005568227393 2.237667248499113 L 4.545634632824315 1.3578864905060781 C 4.5284433718546175 1.297695446327795 4.473430063211855 1.2561959968312308 4.410832129942142 1.2561978301003531 L 3.8856436105596495 1.2561978301003531 M 4.410840887901009 3.4995314779864697 L 1.9583846981866349 3.4995314779864697 C 1.8957740502458436 3.4995314779864697 1.8407653106016821 3.4580187529564865 1.823582195304461 3.3978428175807447 L 1.5722025019425172 2.5180708175465774 L 4.797014326186259 2.5180708175465774 L 4.545634632824315 3.3978428175807447 C 4.5284468289043 3.4580324999906376 4.473436562443543 3.499532350804479 4.410840887901009 3.4995314779864697 M 3.9557598292495326 1.676825078568717 L 2.4134569988792443 1.676825078568717 L 2.5536631623824095 0.8355530657142554 L 3.8155624237052344 0.8355530657142554 Z" fill="none" transform="matrix(1,0,0,1,0,0)" fill-rule="nonzero" stroke-dasharray="none" stroke-miterlimit="10" stroke-linejoin="miter" stroke-linecap="butt" stroke-width="0.15241475816388209" stroke="#fffcf7"></path></g><g clip-path="url(#a267ff6cd-4c44-4756-87b8-50c7ffae09401a3087fd-cb04-4555-a75c-685b6ae228e0)"><path d=" M 4.937220489689424 2.518079575505444 L 1.4320138543570853 2.518079575505444 C 1.3545584661365846 2.518079575505444 1.2918164488127872 2.455302526346178 1.2918164488127872 2.377882169961145 C 1.2918164488127872 2.3004180237817775 1.3545584661365846 2.237649732581379 1.4320138543570853 2.237649732581379 L 4.937220489689424 2.237649732581379 C 5.014640846074457 2.237649732581379 5.077417895233723 2.3004180237817775 5.077417895233723 2.377882169961145 C 5.077417895233723 2.455302526346178 5.014640846074457 2.518079575505444 4.937220489689424 2.518079575505444" fill="none" transform="matrix(1,0,0,1,0,0)" fill-rule="nonzero" stroke-dasharray="none" stroke-miterlimit="10" stroke-linejoin="miter" stroke-linecap="butt" stroke-width="0.15241475816388209" stroke="#fffcf7"></path></g><g clip-path="url(#a267ff6cd-4c44-4756-87b8-50c7ffae09401a3087fd-cb04-4555-a75c-685b6ae228e0)"><path d=" M 2.802117697482747 0.8355705816319897 C 2.802117697482747 1.0468125495060825 2.973370825169729 1.2180656771930647 3.1846127930438217 1.2180656771930647 C 3.3958547609179144 1.2180656771930647 3.5671078886048964 1.0468125495060825 3.5671078886048964 0.8355705816319897" fill="none" transform="matrix(1,0,0,1,0,0)" fill-rule="nonzero" stroke-dasharray="none" stroke-miterlimit="10" stroke-linejoin="miter" stroke-linecap="butt" stroke-width="0.15241475816388209" stroke="#fffcf7"></path></g><g clip-path="url(#a267ff6cd-4c44-4756-87b8-50c7ffae09401a3087fd-cb04-4555-a75c-685b6ae228e0)"><path d=" M 0 2.382979302021789 L 0.9832823158842461 2.382979302021789" fill="none" transform="matrix(1,0,0,1,0,0)" fill-rule="nonzero" stroke-dasharray="none" stroke-miterlimit="10" stroke-linejoin="miter" stroke-linecap="round" stroke-width="0.15241475816388209" stroke="#fffcf7"></path></g><g clip-path="url(#SvgjsClipPath10001a3087fd-cb04-4555-a75c-685b6ae228e0)"><path d=" M 0.6657665615716966 1.606583785141234 L 1.4112440203379808 1.606583785141234" fill="none" transform="matrix(1,0,0,1,0,0)" fill-rule="nonzero" stroke-dasharray="none" stroke-miterlimit="10" stroke-linejoin="miter" stroke-linecap="round" stroke-width="0.15241475816388209" stroke="#fffcf7"></path></g><g clip-path="url(#SvgjsClipPath10001a3087fd-cb04-4555-a75c-685b6ae228e0)"><path d=" M 0.3103326703251865 1.9919371281660532 L 1.3002710349484172 1.9919371281660532" fill="none" transform="matrix(1,0,0,1,0,0)" fill-rule="nonzero" stroke-dasharray="none" stroke-miterlimit="10" stroke-linejoin="miter" stroke-linecap="round" stroke-width="0.15241475816388209" stroke="#fffcf7"></path></g><g clip-path="url(#SvgjsClipPath10001a3087fd-cb04-4555-a75c-685b6ae228e0)"><path d=" M 3.1830335610905656 2.9112163893580782 L 3.1830335610905656 3.46798610841528" fill="none" transform="matrix(1,0,0,1,0,0)" fill-rule="nonzero" stroke-dasharray="none" stroke-miterlimit="4" stroke-linejoin="miter" stroke-linecap="round" stroke-width="0.15241475816388209" stroke="#fffcf7"></path></g><g clip-path="url(#SvgjsClipPath10001a3087fd-cb04-4555-a75c-685b6ae228e0)"><path d=" M 3.7439625234423217 2.9112163893580782 L 3.7439625234423217 3.46798610841528" fill="none" transform="matrix(1,0,0,1,0,0)" fill-rule="nonzero" stroke-dasharray="none" stroke-miterlimit="4" stroke-linejoin="miter" stroke-linecap="round" stroke-width="0.15241475816388209" stroke="#fffcf7"></path></g><g clip-path="url(#SvgjsClipPath10001a3087fd-cb04-4555-a75c-685b6ae228e0)"><path d=" M 2.6221111672243813 2.9112163893580782 L 2.6221111672243813 3.46798610841528" fill="none" transform="matrix(1,0,0,1,0,0)" fill-rule="nonzero" stroke-dasharray="none" stroke-miterlimit="4" stroke-linejoin="miter" stroke-linecap="round" stroke-width="0.15241475816388209" stroke="#fffcf7"></path></g></g><g><path d=" M -1.4189766073467798 2.6096484144402523 A 4.305170709953544 4.305170709953544 0 0 1 7.191364812560309 2.6096484144402523 A 4.305170709953544 4.305170709953544 0 0 1 -1.4189766073467798 2.6096484144402523 Z M -1.36897660734678 2.6096484144402514 A 4.255170709953544 4.255170709953544 0 0 0 7.141364812560307 2.6096484144402514 A 4.255170709953544 4.255170709953544 0 0 0 -1.36897660734678 2.6096484144402514 Z" fill="#fffcf7" fill-rule="nonzero"></path></g><g transform="matrix(0.4199915787094488,-0.9075280016688988,0.9075280016688988,0.4199915787094488,-2.153810034606074,-1.1598274144005898)"><g clip-path="url(#SvgjsClipPath1002)"><path d=" M -1.9842848216597848 1.3016640382481959 C -1.8748659871770261 1.3016640382481959 -1.7842315492459917 1.2112235037654373 -1.7842315492459917 1.101610765834403 C -1.7842315492459917 0.9921923720412995 -1.8748659871770261 0.9015581544550926 -1.9844787251080607 0.9015581544550926 C -2.093897779935647 0.9015581544550926 -2.1843380940735777 0.9921923720412995 -2.1843380940735777 1.101610765834403 C -2.1843380940735777 1.2112235037654373 -2.0937040968321985 1.3016640382481959 -1.9842848216597848 1.3016640382481959 Z" fill="#fffcf7" transform="matrix(1,0,0,1,0,0)" fill-rule="nonzero"></path></g></g><g transform="matrix(-0.4199915787094488,-0.9075280016688988,-0.9075280016688988,0.4199915787094488,12.017318504767212,7.680364596219627)"><g clip-path="url(#SvgjsClipPath1003)"><path d=" M 7.756673026873312 1.3016640382481959 C 7.86609186135607 1.3016640382481959 7.956726299287105 1.2112235037654373 7.956726299287105 1.101610765834403 C 7.956726299287105 0.9921923720412995 7.86609186135607 0.9015581544550926 7.756479123425036 0.9015581544550926 C 7.64706006859745 0.9015581544550926 7.556619754459518 0.9921923720412995 7.556619754459518 1.101610765834403 C 7.556619754459518 1.2112235037654373 7.647253751700898 1.3016640382481959 7.756673026873312 1.3016640382481959 Z" fill="#fffcf7" transform="matrix(1,0,0,1,0,0)" fill-rule="nonzero"></path></g></g></g><defs><clipPath id="SvgjsClipPath1001"><path d=" M 0 0 h 5.772388205213527 v 5.219296828880503 h -5.772388205213527 Z"></path></clipPath><clipPath id="a267ff6cd-4c44-4756-87b8-50c7ffae09401a3087fd-cb04-4555-a75c-685b6ae228e0"><path d=" M -0.07620300010250751 5.219296828880504 L 5.7723882052135265 5.219296828880504 L 5.7723882052135265 -0.000008757958867176588 L -0.07620300010250751 -0.000008757958867176588 Z"></path></clipPath><clipPath id="SvgjsClipPath10001a3087fd-cb04-4555-a75c-685b6ae228e0"><path d=" M 0 -5.126910634002194e-16 L 5.772388205213527 -5.126910634002194e-16 L 5.772388205213527 5.219296828880504 L 0 5.219296828880504 Z"></path></clipPath><clipPath id="SvgjsClipPath1002"><path d=" M -2.2927675802804743 0.7855988244550927 h 0.6169655172413792 v 0.6389999999999999 h -0.6169655172413792 Z"></path></clipPath><clipPath id="SvgjsClipPath1003"><path d=" M 7.448190268252622 0.7855988244550927 h 0.6169655172413792 v 0.6389999999999999 h -0.6169655172413792 Z"></path></clipPath></defs></svg>