<svg data-v-fde0c5aa="" xmlns="http://www.w3.org/2000/svg" viewBox="0 0 300 300" class="font"><!----><defs data-v-fde0c5aa=""><!----></defs><rect data-v-fde0c5aa="" fill="transparent" x="0" y="0" width="300px" height="300px" class="logo-background-square"></rect><defs data-v-fde0c5aa=""><linearGradient data-v-fde0c5aa="" gradientTransform="rotate(25)" id="24fb4cfc-9d5f-464a-af6f-00456e10f988" x1="0%" y1="0%" x2="100%" y2="0%"><stop data-v-fde0c5aa="" offset="0%" stop-color="#87544E" stop-opacity="1"></stop><stop data-v-fde0c5aa="" offset="100%" stop-color="#87544E" stop-opacity="1"></stop></linearGradient></defs><g data-v-fde0c5aa="" id="e1e2358f-1674-442a-9947-b18e4c19a08d" fill="url(#24fb4cfc-9d5f-464a-af6f-00456e10f988)" transform="matrix(2.3494233386797756,0,0,2.3494233386797756,39.154207564466525,129.1371216039458)"><path d="M0.78 7.48L0.78 7.48Q0.78 6.87 0.99 6.47Q1.20 6.06 1.56 5.82Q1.92 5.59 2.41 5.48Q2.90 5.38 3.44 5.38L3.44 5.38L6.03 5.38L6.03 5.73L5.12 5.87L5.12 5.94Q5.54 6.15 5.82 6.54Q6.10 6.94 6.10 7.48L6.10 7.48Q6.10 8.08 5.89 8.48Q5.68 8.89 5.33 9.13Q4.97 9.37 4.48 9.47Q3.99 9.58 3.44 9.58L3.44 9.58Q1.97 9.58 1.97 10.07L1.97 10.07Q1.97 10.56 3.44 10.56L3.44 10.56Q4.07 10.56 4.63 10.68Q5.19 10.81 5.61 11.07Q6.03 11.33 6.28 11.74Q6.52 12.15 6.52 12.73L6.52 12.73Q6.52 13.33 6.29 13.74Q6.05 14.15 5.63 14.41Q5.22 14.67 4.66 14.78Q4.10 14.90 3.44 14.90L3.44 14.90Q2.79 14.90 2.23 14.78Q1.67 14.67 1.25 14.41Q0.84 14.15 0.60 13.74Q0.36 13.33 0.36 12.73L0.36 12.73Q0.36 12.04 0.82 11.58Q1.27 11.12 1.90 10.91L1.90 10.91Q1.69 10.79 1.52 10.59Q1.34 10.39 1.34 10.07L1.34 10.07Q1.34 9.74 1.51 9.58Q1.68 9.41 1.83 9.30L1.83 9.30Q1.41 9.09 1.10 8.62Q0.78 8.16 0.78 7.48ZM3.58 11.12L2.81 11.05Q2.28 11.26 1.95 11.65Q1.62 12.04 1.62 12.73L1.62 12.73Q1.62 13.57 2.14 13.95Q2.65 14.34 3.44 14.34L3.44 14.34Q4.24 14.34 4.75 13.95Q5.26 13.57 5.26 12.73L5.26 12.73Q5.26 11.33 3.58 11.12L3.58 11.12ZM4.84 7.48L4.84 7.48Q4.84 6.64 4.44 6.25Q4.03 5.87 3.44 5.87L3.44 5.87Q3.15 5.87 2.90 5.95Q2.65 6.03 2.46 6.22Q2.27 6.41 2.16 6.72Q2.04 7.03 2.04 7.48L2.04 7.48Q2.04 7.92 2.16 8.23Q2.27 8.54 2.46 8.73Q2.65 8.92 2.90 9.00Q3.15 9.09 3.44 9.09L3.44 9.09Q3.74 9.09 3.99 9.00Q4.24 8.92 4.43 8.73Q4.62 8.54 4.73 8.23Q4.84 7.92 4.84 7.48ZM8.01 12.10L8.01 7.20Q8.01 6.57 7.83 6.18Q7.66 5.80 7.03 5.80L7.03 5.80L6.89 5.80L6.89 5.52L8.01 5.52Q8.54 5.52 8.81 5.67Q9.09 5.82 9.20 6.15L9.20 6.15L9.27 6.15Q9.48 5.88 9.90 5.63Q10.32 5.38 10.95 5.38L10.95 5.38Q11.16 5.38 11.40 5.42Q11.63 5.47 11.79 5.59L11.79 5.59Q11.94 5.70 12.05 5.85Q12.17 6.01 12.28 6.22L12.28 6.22L11.72 6.64Q11.56 6.43 11.26 6.32Q10.96 6.22 10.60 6.22L10.60 6.22Q10.18 6.22 9.83 6.41Q9.48 6.59 9.27 6.92L9.27 6.92L9.27 12.10L8.01 12.10ZM17.78 8.81L17.78 8.81Q17.78 8.20 17.65 7.68Q17.53 7.15 17.30 6.77Q17.07 6.38 16.74 6.16Q16.42 5.94 16.03 5.94L16.03 5.94Q15.64 5.94 15.32 6.16Q14.99 6.38 14.76 6.77Q14.53 7.15 14.41 7.68Q14.28 8.20 14.28 8.81L14.28 8.81Q14.28 9.41 14.41 9.93Q14.53 10.46 14.76 10.84Q14.99 11.23 15.32 11.45Q15.64 11.68 16.03 11.68L16.03 11.68Q16.42 11.68 16.74 11.45Q17.07 11.23 17.30 10.84Q17.53 10.46 17.65 9.93Q17.78 9.41 17.78 8.81ZM12.95 8.81L12.95 8.81Q12.95 8.09 13.15 7.47Q13.36 6.85 13.76 6.38Q14.15 5.92 14.72 5.65Q15.29 5.38 16.03 5.38L16.03 5.38Q16.76 5.38 17.33 5.65Q17.91 5.92 18.30 6.38Q18.70 6.85 18.91 7.47Q19.11 8.09 19.11 8.81L19.11 8.81Q19.11 9.52 18.91 10.14Q18.70 10.77 18.30 11.23Q17.91 11.69 17.33 11.96Q16.76 12.24 16.03 12.24L16.03 12.24Q15.29 12.24 14.72 11.96Q14.15 11.69 13.76 11.23Q13.36 10.77 13.15 10.14Q12.95 9.52 12.95 8.81ZM23.45 5.38L23.45 5.38Q24.19 5.38 24.70 5.49Q25.21 5.60 25.48 5.87L25.48 5.87Q25.61 5.99 25.68 6.15Q25.76 6.30 25.79 6.51Q25.82 6.72 25.82 7.01Q25.83 7.29 25.83 7.69L25.83 7.69L25.55 7.69Q25.49 6.79 24.98 6.36Q24.47 5.94 23.73 5.94L23.73 5.94Q23.20 5.94 22.82 6.16Q22.44 6.38 22.19 6.77Q21.94 7.15 21.82 7.68Q21.70 8.20 21.70 8.81L21.70 8.81Q21.70 9.41 21.82 9.93Q21.94 10.46 22.19 10.84Q22.44 11.23 22.82 11.45Q23.20 11.68 23.73 11.68L23.73 11.68Q24.47 11.68 24.93 11.38Q25.40 11.09 25.76 10.56L25.76 10.56L26.04 10.77Q25.56 11.56 24.93 11.90Q24.29 12.24 23.45 12.24L23.45 12.24Q22.67 12.24 22.09 11.96Q21.50 11.69 21.13 11.23Q20.75 10.77 20.56 10.14Q20.37 9.52 20.37 8.81L20.37 8.81Q20.37 8.09 20.56 7.47Q20.75 6.85 21.13 6.38Q21.50 5.92 22.09 5.65Q22.67 5.38 23.45 5.38ZM32.73 8.46L32.70 9.02L28.46 9.02Q28.46 9.59 28.59 10.08Q28.71 10.57 28.96 10.93Q29.20 11.28 29.55 11.48Q29.90 11.68 30.35 11.68L30.35 11.68Q31.04 11.68 31.49 11.38Q31.95 11.09 32.31 10.56L32.31 10.56L32.59 10.77Q32.12 11.56 31.49 11.90Q30.87 12.24 30.07 12.24L30.07 12.24Q29.33 12.24 28.78 11.96Q28.24 11.69 27.87 11.23Q27.50 10.77 27.31 10.14Q27.13 9.52 27.13 8.81L27.13 8.81Q27.13 8.09 27.32 7.47Q27.51 6.85 27.87 6.38Q28.24 5.92 28.76 5.65Q29.27 5.38 29.93 5.38L29.93 5.38Q31.36 5.38 32.05 6.17Q32.73 6.97 32.73 8.46L32.73 8.46ZM28.46 8.46L31.40 8.46Q31.40 7.24 31.04 6.59Q30.67 5.94 29.93 5.94L29.93 5.94Q29.61 5.94 29.34 6.13Q29.08 6.31 28.88 6.65Q28.69 6.99 28.57 7.45Q28.46 7.91 28.46 8.46L28.46 8.46ZM34.45 12.10L34.45 7.20Q34.45 6.57 34.28 6.18Q34.10 5.80 33.47 5.80L33.47 5.80L33.33 5.80L33.33 5.52L34.45 5.52Q34.99 5.52 35.26 5.67Q35.53 5.82 35.64 6.15L35.64 6.15L35.71 6.15Q35.92 5.88 36.34 5.63Q36.76 5.38 37.39 5.38L37.39 5.38Q37.60 5.38 37.84 5.42Q38.08 5.47 38.23 5.59L38.23 5.59Q38.39 5.70 38.50 5.85Q38.61 6.01 38.72 6.22L38.72 6.22L38.16 6.64Q38.01 6.43 37.71 6.32Q37.41 6.22 37.04 6.22L37.04 6.22Q36.62 6.22 36.27 6.41Q35.92 6.59 35.71 6.92L35.71 6.92L35.71 12.10L34.45 12.10ZM42.25 13.01L42.53 12.24L40.29 6.78Q40.08 6.24 39.68 5.98Q39.28 5.71 38.75 5.66L38.75 5.66L38.75 5.38L39.94 5.38Q40.57 5.38 40.98 5.67Q41.40 5.96 41.62 6.50L41.62 6.50L43.22 10.37L44.98 5.52L45.68 5.52L42.95 13.01Q42.74 13.58 42.51 13.95Q42.28 14.32 42.02 14.53Q41.76 14.74 41.45 14.82Q41.15 14.90 40.78 14.90L40.78 14.90L40.36 14.90L40.36 14.48Q40.67 14.48 40.95 14.41Q41.23 14.35 41.46 14.19Q41.69 14.03 41.89 13.74Q42.08 13.45 42.25 13.01L42.25 13.01ZM51.74 10.42L51.74 10.42Q51.74 10.86 51.55 11.20Q51.37 11.54 51.04 11.77Q50.72 12.00 50.27 12.12Q49.81 12.24 49.29 12.24L49.29 12.24Q48.45 12.24 47.92 12.09Q47.39 11.94 47.12 11.68L47.12 11.68Q46.86 11.41 46.82 11.07Q46.77 10.74 46.77 10.21L46.77 10.21L47.05 10.21Q47.17 10.89 47.64 11.28Q48.12 11.68 49.01 11.68L49.01 11.68Q49.81 11.68 50.18 11.40Q50.55 11.12 50.55 10.70L50.55 10.70Q50.55 10.28 50.24 9.99Q49.92 9.70 49.29 9.44L49.29 9.44L48.45 9.09Q47.66 8.76 47.22 8.32Q46.77 7.88 46.77 7.20L46.77 7.20Q46.77 6.75 46.95 6.41Q47.12 6.08 47.43 5.84Q47.74 5.61 48.16 5.50Q48.58 5.38 49.08 5.38L49.08 5.38Q49.88 5.38 50.40 5.52Q50.92 5.67 51.18 5.94L51.18 5.94Q51.45 6.20 51.49 6.54Q51.53 6.87 51.53 7.41L51.53 7.41L51.25 7.41Q51.14 6.72 50.67 6.33Q50.20 5.94 49.36 5.94L49.36 5.94Q48.68 5.94 48.32 6.22Q47.96 6.50 47.96 6.92L47.96 6.92Q47.96 7.28 48.26 7.58Q48.55 7.88 49.08 8.11L49.08 8.11L49.92 8.46Q50.82 8.82 51.28 9.25Q51.74 9.69 51.74 10.42ZM54.66 4.54L54.66 12.10L53.40 12.10L53.40 4.54Q53.40 3.91 53.22 3.52Q53.05 3.14 52.42 3.14L52.42 3.14L52.14 3.14L52.14 2.86L53.40 2.86Q53.76 2.86 54.01 2.92Q54.25 2.98 54.40 3.17Q54.54 3.36 54.60 3.69Q54.66 4.02 54.66 4.54L54.66 4.54ZM58.20 7.20L58.20 12.10L56.94 12.10L56.94 7.20Q56.94 6.57 56.76 6.18Q56.59 5.80 55.96 5.80L55.96 5.80L55.68 5.80L55.68 5.52L56.94 5.52Q57.30 5.52 57.55 5.58Q57.79 5.64 57.94 5.83Q58.09 6.02 58.14 6.35Q58.20 6.68 58.20 7.20L58.20 7.20ZM58.11 4.05L58.11 4.05Q58.11 4.34 57.94 4.51Q57.76 4.68 57.47 4.68L57.47 4.68Q57.15 4.68 56.92 4.41Q56.69 4.14 56.69 3.78L56.69 3.78Q56.69 3.49 56.86 3.32Q57.04 3.15 57.33 3.15L57.33 3.15Q57.65 3.15 57.88 3.42Q58.11 3.68 58.11 4.05ZM61.64 6.78L61.64 11.26Q61.96 11.41 62.31 11.54Q62.65 11.68 62.97 11.68L62.97 11.68Q63.45 11.68 63.78 11.45Q64.11 11.23 64.32 10.84Q64.53 10.46 64.62 9.93Q64.72 9.41 64.72 8.81L64.72 8.81Q64.72 8.20 64.63 7.68Q64.54 7.15 64.34 6.77Q64.13 6.38 63.83 6.16Q63.53 5.94 63.11 5.94L63.11 5.94Q62.82 5.94 62.59 6.01Q62.37 6.08 62.20 6.20Q62.02 6.31 61.88 6.47Q61.74 6.62 61.64 6.78L61.64 6.78ZM60.38 14.76L60.38 7.20Q60.38 6.57 60.21 6.18Q60.03 5.80 59.40 5.80L59.40 5.80L59.12 5.80L59.12 5.52L60.38 5.52Q60.91 5.52 61.19 5.67Q61.46 5.82 61.57 6.15L61.57 6.15L61.64 6.15Q61.85 5.88 62.30 5.63Q62.75 5.38 63.53 5.38L63.53 5.38Q64.16 5.38 64.63 5.65Q65.10 5.92 65.42 6.38Q65.73 6.85 65.89 7.47Q66.05 8.09 66.05 8.81L66.05 8.81Q66.05 9.52 65.89 10.14Q65.73 10.77 65.40 11.23Q65.07 11.69 64.58 11.96Q64.08 12.24 63.39 12.24L63.39 12.24Q62.80 12.24 62.38 12.10Q61.96 11.97 61.64 11.82L61.64 11.82L61.64 14.76L60.38 14.76ZM68.24 10.77L68.24 10.77Q68.56 10.77 68.77 10.99Q68.99 11.21 68.99 11.52L68.99 11.52Q68.99 11.84 68.77 12.07Q68.54 12.29 68.24 12.29L68.24 12.29Q67.93 12.29 67.70 12.07Q67.48 11.84 67.48 11.52L67.48 11.52Q67.48 11.21 67.70 10.99Q67.93 10.77 68.24 10.77ZM73.49 5.38L73.49 5.38Q74.23 5.38 74.74 5.49Q75.25 5.60 75.52 5.87L75.52 5.87Q75.64 5.99 75.72 6.15Q75.80 6.30 75.82 6.51Q75.85 6.72 75.86 7.01Q75.87 7.29 75.87 7.69L75.87 7.69L75.59 7.69Q75.53 6.79 75.02 6.36Q74.51 5.94 73.77 5.94L73.77 5.94Q73.23 5.94 72.86 6.16Q72.48 6.38 72.23 6.77Q71.97 7.15 71.85 7.68Q71.74 8.20 71.74 8.81L71.74 8.81Q71.74 9.41 71.85 9.93Q71.97 10.46 72.23 10.84Q72.48 11.23 72.86 11.45Q73.23 11.68 73.77 11.68L73.77 11.68Q74.51 11.68 74.97 11.38Q75.43 11.09 75.80 10.56L75.80 10.56L76.08 10.77Q75.60 11.56 74.96 11.90Q74.33 12.24 73.49 12.24L73.49 12.24Q72.70 12.24 72.12 11.96Q71.54 11.69 71.16 11.23Q70.78 10.77 70.59 10.14Q70.41 9.52 70.41 8.81L70.41 8.81Q70.41 8.09 70.59 7.47Q70.78 6.85 71.16 6.38Q71.54 5.92 72.12 5.65Q72.70 5.38 73.49 5.38ZM82.00 8.81L82.00 8.81Q82.00 8.20 81.87 7.68Q81.75 7.15 81.52 6.77Q81.28 6.38 80.96 6.16Q80.64 5.94 80.25 5.94L80.25 5.94Q79.86 5.94 79.53 6.16Q79.21 6.38 78.98 6.77Q78.75 7.15 78.62 7.68Q78.50 8.20 78.50 8.81L78.50 8.81Q78.50 9.41 78.62 9.93Q78.75 10.46 78.98 10.84Q79.21 11.23 79.53 11.45Q79.86 11.68 80.25 11.68L80.25 11.68Q80.64 11.68 80.96 11.45Q81.28 11.23 81.52 10.84Q81.75 10.46 81.87 9.93Q82.00 9.41 82.00 8.81ZM77.17 8.81L77.17 8.81Q77.17 8.09 77.37 7.47Q77.57 6.85 77.97 6.38Q78.37 5.92 78.94 5.65Q79.51 5.38 80.25 5.38L80.25 5.38Q80.98 5.38 81.55 5.65Q82.12 5.92 82.52 6.38Q82.92 6.85 83.13 7.47Q83.33 8.09 83.33 8.81L83.33 8.81Q83.33 9.52 83.13 10.14Q82.92 10.77 82.52 11.23Q82.12 11.69 81.55 11.96Q80.98 12.24 80.25 12.24L80.25 12.24Q79.51 12.24 78.94 11.96Q78.37 11.69 77.97 11.23Q77.57 10.77 77.37 10.14Q77.17 9.52 77.17 8.81ZM86.37 6.08L86.44 6.08Q86.70 5.81 87.16 5.59Q87.63 5.38 88.26 5.38L88.26 5.38Q88.79 5.38 89.23 5.57Q89.67 5.77 89.94 6.36L89.94 6.36Q90.30 5.88 90.87 5.63Q91.45 5.38 92.04 5.38L92.04 5.38Q92.43 5.38 92.78 5.48Q93.14 5.59 93.41 5.87Q93.67 6.16 93.83 6.65Q94.00 7.14 94.00 7.90L94.00 7.90L94.00 12.10L92.74 12.10L92.74 7.90Q92.74 6.85 92.44 6.43Q92.15 6.01 91.62 6.01L91.62 6.01Q91.41 6.01 91.19 6.09Q90.97 6.17 90.78 6.31Q90.58 6.44 90.41 6.60Q90.24 6.76 90.15 6.92L90.15 6.92Q90.20 7.07 90.21 7.38Q90.22 7.69 90.22 7.90L90.22 7.90L90.22 12.10L88.96 12.10L88.96 7.90Q88.96 6.85 88.66 6.43Q88.37 6.01 87.84 6.01L87.84 6.01Q87.42 6.01 87.06 6.23Q86.70 6.45 86.44 6.75L86.44 6.75L86.44 12.10L85.18 12.10L85.18 7.20Q85.18 6.57 85.00 6.18Q84.83 5.80 84.20 5.80L84.20 5.80L83.92 5.80L83.92 5.52L85.18 5.52Q85.71 5.52 85.98 5.66Q86.25 5.81 86.37 6.08L86.37 6.08Z"></path></g><!----><!----></svg>